<?xml version="1.0" encoding="UTF-8" standalone="no"?>
<svg
   id="Layer_1"
   data-name="Layer 1"
   viewBox="0 0 1100.4151 454.06818"
   version="1.1"
   sodipodi:docname="hockeyrats-logo-cropped.svg"
   inkscape:version="1.1 (c68e22c387, 2021-05-23)"
   width="1100.415"
   height="454.06818"
   xmlns:inkscape="http://www.inkscape.org/namespaces/inkscape"
   xmlns:sodipodi="http://sodipodi.sourceforge.net/DTD/sodipodi-0.dtd"
   xmlns:xlink="http://www.w3.org/1999/xlink"
   xmlns="http://www.w3.org/2000/svg"
   xmlns:svg="http://www.w3.org/2000/svg">
  <sodipodi:namedview
     id="namedview593"
     pagecolor="#ffffff"
     bordercolor="#666666"
     borderopacity="1.0"
     inkscape:pageshadow="2"
     inkscape:pageopacity="0.0"
     inkscape:pagecheckerboard="0"
     showgrid="false"
     inkscape:zoom="1.019"
     inkscape:cx="509.81354"
     inkscape:cy="229.14622"
     inkscape:window-width="2400"
     inkscape:window-height="1321"
     inkscape:window-x="-9"
     inkscape:window-y="-9"
     inkscape:window-maximized="1"
     inkscape:current-layer="Layer_1"
     fit-margin-top="0"
     fit-margin-left="0"
     fit-margin-right="0"
     fit-margin-bottom="0" />
  <defs
     id="defs326">
    <style
       id="style302">.cls-1{fill:#2298d8;}.cls-2,.cls-8{fill:none;stroke:#005c84;}.cls-2{stroke-width:16.56px;}.cls-16,.cls-3{fill:#fff;}.cls-4{fill:url(#linear-gradient);}.cls-5{fill:url(#linear-gradient-2);}.cls-6{fill:url(#linear-gradient-3);}.cls-7{fill:url(#linear-gradient-4);}.cls-8{stroke-width:16.56px;}.cls-9{fill:url(#linear-gradient-5);}.cls-10{fill:url(#linear-gradient-6);}.cls-11{fill:#e8937e;}.cls-12{fill:#c16452;}.cls-13{fill:#849ba1;}.cls-14,.cls-23{fill:#f38a6d;}.cls-14,.cls-16,.cls-17,.cls-21,.cls-22{fill-rule:evenodd;}.cls-15{fill:#d66145;}.cls-17{fill:#adbec4;}.cls-18{fill:#005c84;}.cls-19{fill:#84d4f7;}.cls-20{fill:#57afce;}.cls-21{fill:#1c1c1c;}.cls-22{fill:#111;}.cls-24{fill:url(#linear-gradient-7);}.cls-25{fill:url(#linear-gradient-8);}.cls-26{fill:url(#linear-gradient-9);}.cls-27{fill:url(#linear-gradient-10);}</style>
    <linearGradient
       id="linear-gradient"
       x1="200.63"
       y1="496.35999"
       x2="200.63"
       y2="676.70001"
       gradientUnits="userSpaceOnUse">
      <stop
         offset="0.5"
         stop-color="#fff"
         id="stop304" />
      <stop
         offset="0.5"
         stop-color="#b3b3b3"
         id="stop306" />
      <stop
         offset="1"
         stop-color="#fff"
         id="stop308" />
    </linearGradient>
    <linearGradient
       id="linear-gradient-2"
       x1="310.62"
       y1="496.35999"
       x2="310.62"
       y2="676.70001"
       xlink:href="#linear-gradient"
       gradientTransform="translate(-127.34497,-270.683)" />
    <linearGradient
       id="linear-gradient-3"
       x1="391.07001"
       y1="496.35999"
       x2="391.07001"
       y2="676.70001"
       xlink:href="#linear-gradient"
       gradientTransform="translate(-127.34497,-270.683)" />
    <linearGradient
       id="linear-gradient-4"
       x1="477.44"
       y1="496.35999"
       x2="477.44"
       y2="676.70001"
       xlink:href="#linear-gradient"
       gradientTransform="translate(-127.34497,-270.683)" />
    <linearGradient
       id="linear-gradient-5"
       x1="571.20001"
       y1="538.19"
       x2="571.20001"
       y2="637.97998"
       xlink:href="#linear-gradient"
       gradientTransform="translate(-127.34497,-270.683)" />
    <linearGradient
       id="linear-gradient-6"
       x1="656.26001"
       y1="550.81"
       x2="656.26001"
       y2="623.88"
       xlink:href="#linear-gradient"
       gradientTransform="translate(-127.34497,-270.683)" />
    <linearGradient
       id="linear-gradient-7"
       x1="778.65997"
       y1="518.42999"
       x2="778.65997"
       y2="653.16998"
       gradientUnits="userSpaceOnUse">
      <stop
         offset="0.5"
         stop-color="#d10000"
         id="stop316" />
      <stop
         offset="0.5"
         stop-color="#940000"
         id="stop318" />
      <stop
         offset="1"
         stop-color="#d10000"
         id="stop320" />
    </linearGradient>
    <linearGradient
       id="linear-gradient-8"
       x1="916.83002"
       y1="518.42999"
       x2="916.83002"
       y2="653.16998"
       xlink:href="#linear-gradient-7"
       gradientTransform="translate(-127.34497,-270.683)" />
    <linearGradient
       id="linear-gradient-9"
       x1="1050.53"
       y1="518.42999"
       x2="1050.53"
       y2="653.16998"
       xlink:href="#linear-gradient-7"
       gradientTransform="translate(-127.34497,-270.683)" />
    <linearGradient
       id="linear-gradient-10"
       x1="1172.1"
       y1="518.42999"
       x2="1172.1"
       y2="653.16998"
       xlink:href="#linear-gradient-7"
       gradientTransform="translate(-127.34497,-270.683)" />
    <linearGradient
       inkscape:collect="always"
       xlink:href="#linear-gradient"
       id="linearGradient979"
       gradientUnits="userSpaceOnUse"
       x1="200.63"
       y1="496.35999"
       x2="200.63"
       y2="676.70001"
       gradientTransform="translate(-127.34497,-270.683)" />
    <linearGradient
       inkscape:collect="always"
       xlink:href="#linear-gradient-7"
       id="linearGradient981"
       gradientUnits="userSpaceOnUse"
       x1="778.65997"
       y1="518.42999"
       x2="778.65997"
       y2="653.16998"
       gradientTransform="translate(-127.34497,-270.683)" />
  </defs>
  <path
     class="cls-1"
     d="m 238.65503,433.097 a 4.94,4.94 0 0 1 -1.4,3.53 4.67,4.67 0 0 1 -2.95,1.43 q 0.66,1.82 6.56,15.9 h -8.39 l -6.05,-14 v 14 h -10.09 l 2.25,-7.57 v -20.83 l -2.25,-7.5 h 17 a 4.62,4.62 0 0 1 3.91,1.94 8.52,8.52 0 0 1 1.41,5.32 z m -7.77,-7.54 h -4.43 v 7.76 h 4.46 z"
     id="path328" />
  <path
     class="cls-1"
     d="m 245.06503,448.547 v -15 l -1.62,-5.41 h 14.49 v 8.28 l -4.67,-2.87 h -2.61 v 4.86 h 3.67 v 4.73 h -3.67 v 5.43 h 2.6 l 5,-3.42 v 8.88 h -14.81 z"
     id="path330" />
  <path
     class="cls-1"
     d="m 276.77503,438.537 a 6.17,6.17 0 0 1 -1.05,3.77 3.27,3.27 0 0 1 -2.78,1.41 h -4.85 v 4.81 l 1.71,5.43 h -9 l 1.61,-5.43 v -14.92 l -1.61,-5.39 h 12.1 a 3.26,3.26 0 0 1 2.8,1.39 6.72,6.72 0 0 1 1,4 z m -8.68,0.65 h 3.15 v -5.58 h -3.15 z"
     id="path332" />
  <path
     class="cls-1"
     d="m 280.94503,448.547 v -15 l -1.62,-5.41 h 14.49 v 8.28 l -4.66,-2.87 h -2.6 v 4.86 h 3.67 v 4.73 h -3.67 v 5.43 h 2.6 l 5,-3.42 v 8.88 h -14.83 z"
     id="path334" />
  <path
     class="cls-1"
     d="m 309.08503,453.987 h -8.78 l 1.55,-5.44 v -14.94 h -1.07 l -4.13,3.71 v -9.1 h 16 v 9.1 l -4.09,-3.7 h -1.07 v 14.94 z"
     id="path336" />
  <path
     class="cls-1"
     d="m 322.83503,433.607 v 15 l 1.63,5.43 h -8.89 l 1.62,-5.43 v -15 l -1.62,-5.39 h 8.89 z"
     id="path338" />
  <path
     class="cls-1"
     d="m 339.25503,453.987 h -8.78 l 1.55,-5.44 v -14.94 h -1.07 l -4.1,3.7 v -9.09 h 16 v 9.1 l -4.09,-3.7 h -1.07 v 14.94 z"
     id="path340" />
  <path
     class="cls-1"
     d="m 353.00503,433.607 v 15 l 1.62,5.43 h -8.88 l 1.62,-5.43 v -15 l -1.62,-5.39 h 8.91 z"
     id="path342" />
  <path
     class="cls-1"
     d="m 360.82503,453.957 a 3.34,3.34 0 0 1 -2.8,-1.38 6.23,6.23 0 0 1 -1.05,-3.8 v -15.35 a 6.1,6.1 0 0 1 1.07,-3.8 3.29,3.29 0 0 1 2.78,-1.41 h 7.47 a 3.31,3.31 0 0 1 2.8,1.41 6.23,6.23 0 0 1 1.05,3.8 v 15.35 a 6,6 0 0 1 -1.07,3.77 3.3,3.3 0 0 1 -2.78,1.41 z m 5.64,-20.35 h -3.81 v 14.94 h 3.81 z"
     id="path344" />
  <path
     class="cls-1"
     d="m 392.48503,433.607 v 20.45 h -5.29 l -5.48,-13 v 13 h -6.89 l 1.6,-5.43 v -15 l -1.6,-5.39 h 6.89 l 5.48,13 v -13 h 6.88 z"
     id="path346" />
  <path
     class="cls-1"
     d="m 408.89503,446.437 4.22,-28.48 h 12.73 l 4.2,28.48 2,7.57 h -9.49 l -0.89,-8.78 h -4.72 l -0.85,8.78 h -9.34 z m 12.26,-7.8 -1.8,-14.54 -1.87,14.54 z"
     id="path348" />
  <path
     class="cls-1"
     d="m 450.65503,438.537 a 6.17,6.17 0 0 1 -1.1,3.78 3.28,3.28 0 0 1 -2.78,1.41 h -4.85 v 4.81 l 1.71,5.43 h -9 l 1.6,-5.43 v -14.93 l -1.58,-5.39 h 12.1 a 3.27,3.27 0 0 1 2.8,1.39 6.72,6.72 0 0 1 1,4 z m -8.68,0.65 h 3.15 v -5.58 h -3.15 z"
     id="path350" />
  <path
     class="cls-1"
     d="m 469.13503,438.537 a 6.17,6.17 0 0 1 -1.05,3.77 3.28,3.28 0 0 1 -2.78,1.41 h -4.85 v 4.81 l 1.71,5.43 h -9 l 1.6,-5.43 v -14.92 l -1.6,-5.39 h 12.1 a 3.27,3.27 0 0 1 2.8,1.39 6.72,6.72 0 0 1 1,4 z m -8.68,0.65 h 3.2 v -5.58 h -3.2 z"
     id="path352" />
  <path
     class="cls-1"
     d="m 473.19503,448.597 v -15 l -1.62,-5.39 h 8.87 l -1.65,5.39 v 15 h 2.07 l 5.2,-4.65 v 10.06 h -14.49 z"
     id="path354" />
  <path
     class="cls-1"
     d="m 496.05503,433.607 v 15 l 1.63,5.43 h -8.89 l 1.62,-5.43 v -15 l -1.62,-5.39 h 8.86 z"
     id="path356" />
  <path
     class="cls-1"
     d="m 500.07503,433.407 a 6.19,6.19 0 0 1 1.05,-3.78 3.34,3.34 0 0 1 2.81,-1.41 h 9.62 v 8.23 l -4.9,-2.84 h -2.94 v 14.89 h 2.94 l 4.9,-3.55 v 9 h -9.62 a 3.33,3.33 0 0 1 -2.81,-1.38 6.23,6.23 0 0 1 -1.05,-3.8 z"
     id="path358" />
  <path
     class="cls-1"
     d="m 517.44503,448.577 3,-20.46 h 9.21 l 3,20.46 1.42,5.43 h -6.82 l -0.6,-6.29 h -3.4 l -0.6,6.29 h -6.7 z m 8.82,-5.61 -1.31,-10.44 -1.3,10.44 z"
     id="path360" />
  <path
     class="cls-1"
     d="m 549.03503,453.987 h -8.78 l 1.55,-5.44 v -14.94 h -1.07 l -4.08,3.71 v -9.1 h 16 v 9.1 l -4.09,-3.7 h -1.07 v 14.94 z"
     id="path362" />
  <path
     class="cls-1"
     d="m 562.79503,433.607 v 15 l 1.62,5.43 h -8.89 l 1.62,-5.43 v -15 l -1.62,-5.39 h 8.89 z"
     id="path364" />
  <path
     class="cls-1"
     d="m 570.65503,453.957 a 3.34,3.34 0 0 1 -2.8,-1.38 6.23,6.23 0 0 1 -1,-3.8 v -15.35 a 6.17,6.17 0 0 1 1.07,-3.8 3.3,3.3 0 0 1 2.73,-1.41 h 7.47 a 3.31,3.31 0 0 1 2.8,1.41 6.16,6.16 0 0 1 1,3.8 v 15.35 a 6.11,6.11 0 0 1 -1.06,3.77 3.31,3.31 0 0 1 -2.79,1.41 z m 5.65,-20.35 h -3.82 v 14.94 h 3.82 z"
     id="path366" />
  <path
     class="cls-1"
     d="m 602.26503,433.607 v 20.45 h -5.29 l -5.48,-13 v 13 h -6.84 l 1.6,-5.43 v -15 l -1.6,-5.41 h 6.89 l 5.48,13 v -13 h 6.88 z"
     id="path368" />
  <path
     class="cls-1"
     d="m 632.46503,453.987 h -12.29 l 2.17,-7.58 v -20.9 h -1.49 l -5.72,5.18 v -12.71 h 22.37 v 12.71 l -5.72,-5.18 h -1.49 v 20.9 z"
     id="path370" />
  <path
     class="cls-1"
     d="m 645.23503,448.577 3,-20.46 h 9.15 l 3,20.46 1.42,5.43 h -6.81 l -0.64,-6.29 h -3.4 l -0.61,6.29 h -6.69 z m 8.82,-5.61 -1.31,-10.44 -1.33,10.44 z"
     id="path372" />
  <path
     class="cls-1"
     d="m 667.83503,433.407 a 6.19,6.19 0 0 1 1.05,-3.78 3.31,3.31 0 0 1 2.8,-1.41 h 9.63 v 8.23 l -4.89,-2.84 h -2.93 v 14.89 h 2.93 l 4.9,-3.55 v 9 h -9.67 a 3.31,3.31 0 0 1 -2.8,-1.38 6.23,6.23 0 0 1 -1.05,-3.8 z"
     id="path374" />
  <path
     class="cls-1"
     d="m 699.58503,453.987 h -8.77 l 1.55,-5.44 v -14.94 h -1.07 l -4.1,3.7 v -9.09 h 16 v 9.1 l -4.09,-3.7 h -1.07 v 14.94 z"
     id="path376" />
  <path
     class="cls-1"
     d="m 716.74503,433.607 v 15 l 1.62,5.43 h -8.89 l 1.63,-5.43 v -15 l -1.63,-5.39 h 8.89 z"
     id="path378" />
  <path
     class="cls-1"
     d="m 724.16503,433.407 a 6.19,6.19 0 0 1 1,-3.78 3.31,3.31 0 0 1 2.8,-1.41 h 9.69 v 8.23 l -4.89,-2.84 h -2.93 v 14.89 h 2.93 l 4.9,-3.55 v 9 h -9.63 a 3.31,3.31 0 0 1 -2.8,-1.38 6.23,6.23 0 0 1 -1,-3.8 z"
     id="path380" />
  <path
     class="cls-1"
     d="m 743.49503,433.427 a 6.25,6.25 0 0 1 1,-3.82 3.29,3.29 0 0 1 2.8,-1.41 h 9.66 v 7.7 l -4.79,-2.29 h -3.14 v 4.71 h 4.76 a 3.31,3.31 0 0 1 2.8,1.41 6.3,6.3 0 0 1 1,3.8 v 5.33 a 6.27,6.27 0 0 1 -1,3.8 3.31,3.31 0 0 1 -2.8,1.41 h -10 v -8 l 5.29,2.57 h 3.14 v -5.22 h -4.87 a 3.29,3.29 0 0 1 -2.8,-1.41 6.19,6.19 0 0 1 -1,-3.82 z"
     id="path382" />
  <path
     class="cls-1"
     d="m 777.00503,425.227 a 8.74,8.74 0 0 1 1.46,-5.33 4.62,4.62 0 0 1 3.91,-1.94 h 13.46 v 10.69 l -6.69,-3.17 h -4.36 v 6.54 h 6.62 a 4.57,4.57 0 0 1 3.89,2 8.67,8.67 0 0 1 1.46,5.3 v 7.42 a 8.62,8.62 0 0 1 -1.46,5.29 4.55,4.55 0 0 1 -3.89,2 h -14 v -11.21 l 7.37,3.57 h 4.36 v -7.27 h -6.77 a 4.64,4.64 0 0 1 -3.91,-1.94 8.65,8.65 0 0 1 -1.46,-5.31 z"
     id="path384" />
  <path
     class="cls-1"
     d="m 814.94503,440.647 6,13.29 h -6.71 l -4.35,-10 v 10 h -7.23 l 1.57,-5.41 v -14.92 l -1.57,-5.39 h 7.25 v 10.6 l 4.42,-10.6 h 6.49 z"
     id="path386" />
  <path
     class="cls-1"
     d="m 834.14503,433.607 v 15 l 1.62,5.43 h -8.89 l 1.63,-5.43 v -15 l -1.63,-5.39 h 8.89 z"
     id="path388" />
  <path
     class="cls-1"
     d="m 843.05503,448.597 v -15 l -1.62,-5.39 h 8.87 l -1.65,5.4 v 15 h 2.06 l 5.2,-4.65 v 10.06 h -14.48 z"
     id="path390" />
  <path
     class="cls-1"
     d="m 863.47503,448.597 v -15 l -1.62,-5.39 h 8.86 l -1.64,5.39 v 15 h 2.07 l 5.2,-4.65 v 10.06 h -14.49 z"
     id="path392" />
  <path
     class="cls-1"
     d="m 882.36503,433.427 a 6.25,6.25 0 0 1 1,-3.82 3.28,3.28 0 0 1 2.8,-1.41 h 9.66 v 7.7 l -4.79,-2.29 h -3.14 v 4.71 h 4.76 a 3.31,3.31 0 0 1 2.8,1.41 6.3,6.3 0 0 1 1,3.8 v 5.33 a 6.27,6.27 0 0 1 -1,3.8 3.31,3.31 0 0 1 -2.8,1.41 h -10 v -8 l 5.29,2.57 h 3.14 v -5.22 h -4.87 a 3.28,3.28 0 0 1 -2.8,-1.41 6.19,6.19 0 0 1 -1,-3.82 z"
     id="path394" />
  <polygon
     class="cls-1"
     points="1210.83,701.76 1036.14,704.3 1036.14,699.22 "
     id="polygon396"
     transform="translate(-127.34497,-270.683)" />
  <polygon
     class="cls-1"
     points="1210.83,717.74 1036.14,720.28 1036.14,715.19 "
     id="polygon398"
     transform="translate(-127.34497,-270.683)" />
  <polygon
     class="cls-1"
     points="137.88,701.76 331.84,699.08 331.84,704.44 "
     id="polygon400"
     transform="translate(-127.34497,-270.683)" />
  <polygon
     class="cls-1"
     points="137.88,717.74 331.84,715.06 331.84,720.42 "
     id="polygon402"
     transform="translate(-127.34497,-270.683)" />
  <path
     class="cls-2"
     d="m 21.655027,350.717 v -134.4 l -11.2,-48.5 h 50.2 v 90.17 H 86.05503 v -90.21 h 50.1 l -10.93,48.54 v 134.4 l 10.93,48.82 h -50.08 v -92.77 H 60.655027 v 92.77 h -50.25 z"
     id="path404" />
  <path
     class="cls-2"
     d="m 164.83503,399.767 a 16.48,16.48 0 0 1 -13.84,-6.86 q -5.19,-7 -5.19,-18.84 v -76.09 q 0,-11.86 5.28,-18.84 a 16.31,16.31 0 0 1 13.75,-7 h 36.88 a 16.38,16.38 0 0 1 13.84,7 q 5.19,7 5.19,18.84 v 76.09 q 0,11.73 -5.28,18.72 a 16.29,16.29 0 0 1 -13.75,7 z m 27.87,-100.92 h -18.85 v 74.1 h 18.85 z"
     id="path406" />
  <path
     class="cls-2"
     d="m 230.39503,297.847 q 0,-11.73 5.19,-18.71 a 16.4,16.4 0 0 1 13.84,-7 h 47.54 v 40.8 l -24.13,-14.1 h -14.48 v 73.85 h 14.48 l 24.22,-17.59 -0.09,44.41 h -47.54 a 16.33,16.33 0 0 1 -13.84,-6.86 q -5.19,-7 -5.19,-18.84 z"
     id="path408" />
  <path
     class="cls-2"
     d="m 365.70503,333.777 29.59,65.87 h -33.14 l -21.5,-49.65 v 49.52 h -35.77 l 7.77,-26.82 v -73.85 l -7.74,-26.7 h 35.74 v 52.52 l 21.85,-52.52 h 32.06 z"
     id="path410" />
  <path
     class="cls-3"
     d="m 21.655027,350.717 v -134.4 l -11.2,-48.5 h 50.2 v 90.17 H 86.05503 v -90.21 h 50.1 l -10.93,48.54 v 134.4 l 10.93,48.82 h -50.08 v -92.77 H 60.655027 v 92.77 h -50.25 z"
     id="path412" />
  <path
     class="cls-3"
     d="m 164.83503,399.767 a 16.48,16.48 0 0 1 -13.84,-6.86 q -5.19,-7 -5.19,-18.84 v -76.09 q 0,-11.86 5.28,-18.84 a 16.31,16.31 0 0 1 13.75,-7 h 36.88 a 16.38,16.38 0 0 1 13.84,7 q 5.19,7 5.19,18.84 v 76.09 q 0,11.73 -5.28,18.72 a 16.29,16.29 0 0 1 -13.75,7 z m 27.87,-100.92 h -18.85 v 74.1 h 18.85 z"
     id="path414" />
  <path
     class="cls-3"
     d="m 230.39503,297.847 q 0,-11.73 5.19,-18.71 a 16.4,16.4 0 0 1 13.84,-7 h 47.54 v 40.8 l -24.13,-14.1 h -14.48 v 73.85 h 14.48 l 24.22,-17.59 -0.09,44.41 h -47.54 a 16.33,16.33 0 0 1 -13.84,-6.86 q -5.19,-7 -5.19,-18.84 z"
     id="path416" />
  <path
     class="cls-3"
     d="m 365.70503,333.777 29.59,65.87 h -33.14 l -21.5,-49.65 v 49.52 h -35.77 l 7.77,-26.82 v -73.85 l -7.74,-26.7 h 35.74 v 52.52 l 21.85,-52.52 h 32.06 z"
     id="path418" />
  <path
     class="cls-4"
     d="m 21.655027,350.717 v -134.4 l -11.2,-48.5 h 50.2 v 90.17 H 86.05503 v -90.21 h 50.1 l -10.93,48.54 v 134.4 l 10.93,48.82 h -50.08 v -92.77 H 60.655027 v 92.77 h -50.25 z"
     id="path420"
     style="fill:url(#linearGradient979)" />
  <path
     class="cls-5"
     d="m 164.83503,399.767 a 16.48,16.48 0 0 1 -13.84,-6.86 q -5.19,-7 -5.19,-18.84 v -76.09 q 0,-11.86 5.28,-18.84 a 16.31,16.31 0 0 1 13.75,-7 h 36.88 a 16.38,16.38 0 0 1 13.84,7 q 5.19,7 5.19,18.84 v 76.09 q 0,11.73 -5.28,18.72 a 16.29,16.29 0 0 1 -13.75,7 z m 27.87,-100.92 h -18.85 v 74.1 h 18.85 z"
     id="path422"
     style="fill:url(#linear-gradient-2)" />
  <path
     class="cls-6"
     d="m 230.39503,297.847 q 0,-11.73 5.19,-18.71 a 16.4,16.4 0 0 1 13.84,-7 h 47.54 v 40.8 l -24.13,-14.1 h -14.48 v 73.85 h 14.48 l 24.22,-17.59 -0.09,44.41 h -47.54 a 16.33,16.33 0 0 1 -13.84,-6.86 q -5.19,-7 -5.19,-18.84 z"
     id="path424"
     style="fill:url(#linear-gradient-3)" />
  <path
     class="cls-7"
     d="m 365.70503,333.777 29.59,65.87 h -33.14 l -21.5,-49.65 v 49.52 h -35.77 l 7.77,-26.82 v -73.85 l -7.74,-26.7 h 35.74 v 52.52 l 21.85,-52.52 h 32.06 z"
     id="path426"
     style="fill:url(#linear-gradient-4)" />
  <path
     class="cls-8"
     d="m 416.08503,372.947 v -74.48 l -8,-26.82 h 71.57 v 41 l -23,-14.23 h -12.89 v 24.08 h 18.12 v 23.45 h -18.12 v 54 h -27.64 z"
     id="path428" />
  <path
     class="cls-3"
     d="m 416.08503,372.947 v -74.48 l -8,-26.82 h 71.57 v 41 l -23,-14.23 h -12.89 v 24.08 h 18.12 v 23.45 h -18.12 v 54 h -27.64 z"
     id="path430" />
  <path
     class="cls-9"
     d="m 416.08503,372.947 v -74.48 l -8,-26.82 h 71.57 v 41 l -23,-14.23 h -12.89 v 24.08 h 18.12 v 23.45 h -18.12 v 54 h -27.64 z"
     id="path432"
     style="fill:url(#linear-gradient-5)" />
  <path
     class="cls-8"
     d="m 549.43503,346.157 a 44,44 0 0 0 12.38,-11.1 32.81,32.81 0 0 0 6.17,-18.38 l -31,-45.08 h -47.14 z"
     id="path434" />
  <path
     class="cls-3"
     d="m 549.43503,346.157 a 44,44 0 0 0 12.38,-11.1 32.81,32.81 0 0 0 6.17,-18.38 l -31,-45.08 h -47.14 z"
     id="path436" />
  <path
     class="cls-10"
     d="m 549.43503,346.157 a 44,44 0 0 0 12.38,-11.1 32.81,32.81 0 0 0 6.17,-18.38 l -31,-45.08 h -47.14 z"
     id="path438"
     style="fill:url(#linear-gradient-6)" />
  <path
     d="m 572.86503,266.367 c -4.41,71.85 -26.46,101.4 -73.43,114.87 -9.86,2.83 -3.49,5.44 -9,8.11 -4.39,2.13 -2.68,1.28 -6.21,3 l -1.07,0.53 -5.5,2.84 c 3.11,1.42 6.37,2.77 9.54,4.17 l 5.06,-2.52 a 16.58,16.58 0 0 1 3.41,4.27 c 0.21,0.41 1.09,1.27 0.66,1.88 6.71,-1.41 -12.65,5.75 0.27,2.93 5.22,-1.13 50.64,-8.92 70.36,-28.32 50,-49.21 34.78,-88.83 33.38,-119.3 -9.37,2.35 -21.6,5.58 -27.47,7.54 z"
     id="path440" />
  <path
     class="cls-11"
     d="m 575.35503,265.107 c 2.9,50.53 -11.74,101 -62.44,117 a 43.91,43.91 0 0 0 -6.86,2.93 c -8,3.6 -14.12,6.5 -21.6,10.08 1.21,0.48 2.3,1 3.46,1.47 l 5.5,-2.73 a 18.14,18.14 0 0 1 5.43,6 c 27.94,-9.2 51.09,-9.3 71.55,-33.47 a 85.17,85.17 0 0 0 7.57,-10.91 89.28,89.28 0 0 0 4.41,-8.28 l 0.07,-0.17 c 12.46,-27.56 16.55,-57.34 14.77,-87.42 z"
     id="path442" />
  <path
     class="cls-12"
     d="m 591.11503,289.227 c -1.19,-3.69 -3,-7.4 -6.21,-9.59 -2.69,-1.83 -6.55,-2.18 -9.21,-0.5 a 164.2,164.2 0 0 1 -3.77,34.18 l 2.78,-2.52 a 11.11,11.11 0 0 1 -3.37,14.81 c 2.78,3 3.78,7.3 3.48,11.37 a 15.37,15.37 0 0 1 -4.07,9.74 9.91,9.91 0 0 1 -9.88,2.67 8.68,8.68 0 0 1 3.09,9 11.16,11.16 0 0 1 -6.45,7.31 15.82,15.82 0 0 1 -9.9,0.66 c 0.4,3.34 0.13,7.17 -1.46,10.13 a 11.28,11.28 0 0 1 -7.77,5.88 c -3.19,0.54 -6.4,-0.56 -9.45,-1.64 -1.81,-0.64 -3.76,-1.42 -4.76,-3 a 91.41,91.41 0 0 1 -11.25,4.42 30.83,30.83 0 0 0 -3,1.08 11.25,11.25 0 0 0 0,2.17 24,24 0 0 0 3.58,10.18 c 21.54,-5.74 40.12,-9.38 56.9,-29.19 a 85.17,85.17 0 0 0 7.57,-10.91 89.28,89.28 0 0 0 4.41,-8.28 l 0.07,-0.17 a 166.17,166.17 0 0 0 11.53,-36.19 c -0.1,-7.32 -0.62,-14.67 -2.86,-21.61 z"
     id="path444" />
  <path
     d="m 572.99503,273.317 a 18.34,18.34 0 0 1 5.22,-6.35 17,17 0 0 1 7.82,-3.45 15.56,15.56 0 0 1 8.55,1.14 16.2,16.2 0 0 1 6.49,5.1 56.22,56.22 0 0 0 -7.42,-2.14 20.84,20.84 0 0 0 -7,-0.2 25.22,25.22 0 0 0 -6.79,2.18 c -2.28,1.05 -4.48,2.39 -6.87,3.72 z"
     id="path446" />
  <path
     d="m 570.48503,304.627 a 23,23 0 0 1 4.54,-7.11 15.23,15.23 0 0 1 7.68,-4.59 12.87,12.87 0 0 1 8.94,1.62 18.84,18.84 0 0 1 6.17,5.83 c -2.62,-1.09 -5,-2.26 -7.42,-3 a 13.78,13.78 0 0 0 -6.9,-0.59 18.82,18.82 0 0 0 -6.47,3.07 c -2.13,1.46 -4.21,3.16 -6.54,4.77 z"
     id="path448" />
  <path
     d="m 587.35503,339.677 a 5.89,5.89 0 0 1 0.74,-0.91 6.21,6.21 0 0 1 0.91,-1.82 c -0.13,-0.35 -0.24,-0.71 -0.38,-1.06 a 19.91,19.91 0 0 0 -5.58,-7.79 16.18,16.18 0 0 0 -9,-3.74 15.91,15.91 0 0 0 -9.13,2 32.75,32.75 0 0 1 8.61,1.07 19.17,19.17 0 0 1 7,3.72 28.47,28.47 0 0 1 5.37,6.22 c 0.51,0.72 0.99,1.51 1.46,2.31 z"
     id="path450" />
  <path
     d="m 573.93503,365.177 a 5.4,5.4 0 0 1 1.5,-1.59 18.47,18.47 0 0 0 -0.18,-4.38 11.39,11.39 0 0 0 -0.54,-2.18 l -0.37,-1.09 -0.53,-1 a 11.19,11.19 0 0 0 -1.32,-2 15.86,15.86 0 0 0 -1.69,-1.69 16.42,16.42 0 0 0 -8.35,-3.19 26.84,26.84 0 0 0 -8.44,0.41 c 2.66,1 5.29,1.74 7.77,2.6 a 21.78,21.78 0 0 1 6.55,3.23 13.75,13.75 0 0 1 3.94,5.75 53.63,53.63 0 0 1 1.66,5.13 z"
     id="path452" />
  <path
     d="m 555.81503,381.827 a 6.1,6.1 0 0 1 0.85,-0.41 15.61,15.61 0 0 0 -0.24,-6 14.86,14.86 0 0 0 -3.94,-7 18.48,18.48 0 0 0 -6.71,-4.19 23.07,23.07 0 0 0 -2.51,-0.73 5.46,5.46 0 0 1 -1.88,1.53 c 1,0.66 2,1.3 3,2 a 33.61,33.61 0 0 1 5.3,4.21 20.76,20.76 0 0 1 3.83,5.32 53.13,53.13 0 0 1 2.3,5.27 z"
     id="path454" />
  <path
     d="m 529.53503,384.137 a 18.19,18.19 0 0 0 -5.8,-5.72 23.73,23.73 0 0 0 -2.08,-1.1 5.89,5.89 0 0 1 -2.25,1.18 c 0.84,0.79 1.66,1.57 2.43,2.36 a 30.35,30.35 0 0 1 4.36,5.35 17.33,17.33 0 0 1 2.32,6.2 c 0,0.28 0.08,0.58 0.12,0.87 a 6.39,6.39 0 0 1 2.47,-0.73 h 0.47 v -0.27 a 13.88,13.88 0 0 0 -2.04,-8.14 z"
     id="path456" />
  <path
     d="m 494.02503,406.937 c -5.56,0.72 -10.49,1.34 -11.62,1.45 l -9.75,0.93 -0.72,0.06 -0.84,0.08 0.07,-0.09 -2,0.16 -11.1,0.82 0.08,-0.1 c -3,0.18 -5.87,0.32 -8.64,0.45 l -2.13,0.08 v 0 h -0.48 l -4.53,0.2 v -0.06 l -2.74,0.06 -9.44,0.2 0.11,-0.13 c -5,-0.06 -9.4,-0.24 -13.19,-0.56 l -5.56,-0.47 -1.77,-0.15 -0.36,-0.71 -1.9,-3.63 c -1.75,-3.37 -3.26,-8.54 -4.5,-15.37 a 147.49,147.49 0 0 1 -2.13,-18.55 l -0.06,-2.19 1.69,-1.52 a 55.32,55.32 0 0 1 4.51,-3.45 l 4.81,-4.51 c 0,0 103,19.35 118.45,7.67 0,0 -4.25,6 -20.59,12.22 a 74.86,74.86 0 0 1 2.21,7.79 c 1.47,9.62 -8.01,18.06 -17.88,19.32 z"
     id="path458" />
  <path
     class="cls-3"
     d="m 482.65503,403.567 c 2.7,-0.14 5.31,-0.29 7.76,-0.45 -2.44,0.24 -5.15,0.5 -8.06,0.76 z"
     id="path460" />
  <path
     class="cls-3"
     d="m 499.49503,377.987 a 3.58,3.58 0 0 1 -4.86,3.77 l -0.16,-0.07 c -5.39,-2.41 -8.69,-2.29 -8.69,-2.29 l 8.06,-1.46 c 0,0 -9.08,-1 -10.29,-1.58 a 1,1 0 0 1 -0.45,-1.58 c 0,0 7.16,-0.27 13.5,-1 -6.72,-0.43 -14.14,-1.13 -15.17,-1.23 l -1.17,-0.13 4.29,24.25 c 4,-0.22 7.77,-0.46 11.05,-0.7 a 10,10 0 0 0 9.15,-11.24 c -0.44,-2.95 -1,-6.52 -1.69,-10.65 -1.27,0 -2.71,-0.09 -4.24,-0.17 z"
     id="path462" />
  <path
     class="cls-3"
     d="m 410.15503,378.517 c 0.72,7 2.15,16 4.87,20.58 l -3.45,4.1 c -1.19,-2.29 -2.72,-6.59 -4.09,-14.17 a 142.67,142.67 0 0 1 -2.06,-17.88 49.42,49.42 0 0 1 4,-3.09 c 0.11,3.13 0.35,6.82 0.73,10.46 z"
     id="path464" />
  <path
     class="cls-3"
     d="m 431.12503,404.017 c 1.51,0.1 3.13,0.19 4.85,0.26 l -1.87,2.23 c -5.92,0 -11.47,-0.14 -16.3,-0.55 l 2.8,-3.33 a 63.09,63.09 0 0 0 10.52,1.39 z"
     id="path466" />
  <path
     class="cls-3"
     d="m 419.76503,366.817 -0.52,9 c 0,0 4,-5.56 9.82,-2.84 5.82,2.72 8.47,9.42 8.47,9.42 v 0 l -6.79,-5.44 c -0.75,-0.64 -1.24,-1 -1.24,-1 l 1.24,1 c 2,1.76 6,5.74 7.31,11 l 0.88,9.58 c -1,0 -2.06,-0.07 -3,-0.12 -11.51,-0.52 -14.34,-1.69 -14.9,-2 -1.24,-1.95 -2.9,-7.38 -4,-17.1 a 109.57,109.57 0 0 1 -0.77,-13.71 c 2.31,0.09 6.9,0.46 16.06,1.55 l 3.77,0.45 0.24,2.61 z"
     id="path468" />
  <path
     class="cls-3"
     d="m 463.73503,404.317 -1,1.1 c -4.3,0.28 -8.7,0.53 -13.08,0.71 l 0.79,-1.6 c 2.34,0 4.8,0 7.36,-0.08 1.94,-0.04 3.94,-0.13 5.93,-0.13 z"
     id="path470" />
  <path
     class="cls-3"
     d="m 476.31503,403.867 -0.54,0.58 c -2.15,0.17 -4.37,0.35 -6.64,0.51 l 0.8,-0.84 c 2.15,-0.07 4.29,-0.16 6.38,-0.25 z"
     id="path472" />
  <path
     class="cls-3"
     d="m 439.86503,406.437 1.67,-2 h 4 l -0.88,1.88 c -1.63,0 -3.22,0.09 -4.79,0.12 z"
     id="path474" />
  <path
     class="cls-3"
     d="m 449.18503,393.317 -5.53,-0.9 -1.94,-16.1 8.32,13.82 c -0.28,1.07 -0.57,2.18 -0.85,3.18 z"
     id="path476" />
  <polygon
     class="cls-13"
     points=""
     id="polygon478"
     transform="translate(-127.34497,-270.683)" />
  <path
     class="cls-3"
     d="m 452.50503,380.727 -7.55,-12.95 4,0.53 4.79,7.55 c -0.23,0.94 -0.67,2.67 -1.24,4.87 z"
     id="path480" />
  <polygon
     class="cls-3"
     points="582.89,665.22 584.8,652.41 593.22,665.7 "
     id="polygon482"
     transform="translate(-127.34497,-270.683)" />
  <path
     class="cls-3"
     d="m 458.08503,369.527 4.35,0.58 2.51,14.21 z"
     id="path484" />
  <path
     class="cls-3"
     d="m 475.91503,394.497 -6,-23.38 c 2,0.28 3.91,0.53 5.57,0.74 l 4,22.9 z"
     id="path486" />
  <path
     d="m 859.06503,47.766998 c -2.57,-2.81 -6.45,-3.45 -10.47,-3.52 l -3.14,-0.16 -2,-0.24 a 102.79,102.79 0 0 0 -15.22,-1.1 19.69,19.69 0 0 0 -1.58,-11.49 12.45,12.45 0 0 0 6.43,-6.54 c 2.29,-5.33 1.11,-12.12 -1.28,-16.6099999 h 0.07 l -1,-1.52 a 16.77,16.77 0 0 0 -1.49,-1.92 c -4.46,-6.110002 -14,-3.31 -18.49,-1 l -0.35,0.18 -0.24,0.3 c -0.9,1.15 -1.74,2.4 -2.55,3.61 a 33.22,33.22 0 0 1 -4.29,5.5099999 l -1.72,-1 c -9.72,-5.6499999 -20.75,-12.05999993 -43,-8.4299999 l -6.44,1 6.82,2.34 c -3.8,1 -8,2.33 -11.45,3.4399999 l -1.61,0.52 c -3.42,-8.7099999 -10.67,-12.7400019 -19,-10.54999993 -6,1.38000003 -10.6,4.52000003 -13.38,9.06000003 a 19.75,19.75 0 0 0 -1.43,18.6699999 23.19,23.19 0 0 0 10.12,11.18 c -9.24,3.21 -20.61,10.81 -27.79,17.35 l -4.82,4.39 0.65,-0.16 c -0.77,0.74 -1.37,1.36 -1.86,1.87 -2.38,2.47 -2.57,2.67 -13.25,5.78 l -6.22,4.13 6.49,-1 1.47,0.24 1.86,0.3 a 45.19,45.19 0 0 0 -10.77,8.920002 l -2.57,2.79 4.12,-0.13 c 0.38,0 1,-0.07 2.07,-0.19 0.72,-0.08 2,-0.22 3.06,-0.31 -0.85,1.94 -2.36,4 -3.52,4.47 -12.68,6 -21.21,24.36 -22.76,32.4 v 0.16 c -0.43,5.33 -4.44,9.36 -8.69,13.62 -3.26,3.27 -6.62,6.64 -8.32,10.71 a 5.9,5.9 0 0 0 -3.67,0.85 c -6.53,3.3 -7.33,8.94 -7.34,12.92 -0.52,7.77 -3.67,11.47 -7,15.38 -2.59,3.05 -5.26,6.19 -6.39,11.13 a 5.54,5.54 0 0 0 -1.78,0.83 5.49,5.49 0 0 0 -2.35,3.51 c -1.06,3.56 -6.61,9.56 -11.48,14.82 -13.69,13.88 -15.65,20.66 -15.73,38.43 v 4.33 l 1.66,-1.62 a 94.69,94.69 0 0 1 -7.89,17.9 l -4.08,6.79 4.42,-3 3.61,0.28 a 50.2,50.2 0 0 0 10.83,-0.07 c -0.25,0.72 -0.47,1.44 -0.67,2.11 -0.13,0.42 -0.24,0.81 -0.36,1.15 l -1,3.05 3.45,-1.05 h 0.06 a 55.33,55.33 0 0 0 -3.2,7.15 l -2.45,6.22 5.08,-3.52 c 14.33,-9.93 26.76,-11.3 44.3,-4.87 h 0.17 c 10.12,2.77 20.13,5.15 30.77,4.61 1.68,-0.18 28.11,-3.14 38.44,-6.41 0,0 5,-0.44 9.48,-1.26 10.15,-2 20.73,-5 30.54,-10.23 l 0.94,-0.54 -1,-1.35 1.08,1.31 a 98.73,98.73 0 0 0 23.77,-19.61 47.31,47.31 0 0 0 7.51,-12.71 c 0.35,-0.81 0.7,-1.64 1.1,-2.5 2.75,-6 11.28,-27.25 5.47,-47.08 -0.38,-2.46 -0.14,-9.1 0.09,-15.52 0.27,-7.63 0.53,-14.83 -0.06,-17.46 -0.42,-2.19 -0.91,-4.44 -1.43,-6.82 -0.94,-4.33 -1.92,-8.81 -2.36,-12.75 v -0.19 a 7,7 0 0 1 0,-2.3 6.72,6.72 0 0 0 -0.81,-4.61 28.92,28.92 0 0 0 4.12,-17.82 l 2.71,-0.72 3.31,-0.91 -5.4,-3.9 c 13,-0.85 23.19,-3.54 30.26,-8 l 0.47,-0.3 a 38.21,38.21 0 0 1 -1.31,5.22 l -0.74,2.15 18.37,-0.27 0.55,-0.57 c 4.32,-4.43 7.68,-10.42 10.4,-15.42 l 4.34,-0.61 c 8.82,-1.170002 14.24,-6.190002 15.68,-10.640002 a 6.58,6.58 0 0 0 -1.13,-6.64 10.34,10.34 0 0 0 0.46,-1.29 c 1.48,-0.09 3.11,-0.91 4.53,-3.31 v -0.08 c 2.51,-4.03 2.19,-8.23 -0.8,-11.26 z"
     id="path488" />
  <path
     class="cls-14"
     d="m 829.47503,12.256998 a 15.28,15.28 0 0 0 -1.73,-3.6399999 l -0.1,-0.15 v 0 a 12.67,12.67 0 0 0 -2.93,-3.14 c 5.43,5.2099999 2.6,13.6699999 2.6,13.6699999 0,0 0.58,-6.71 -2.84,-10.9199999 -3.42,-4.21 -10.58,-1.47 -10.73,-1.41 -0.15,0.06 -0.29,0.36 -0.41,0.53 -2.1,3.1599999 -4.35,6.8699999 -7.26,9.2399999 l 0.7,0.41 a 12.74,12.74 0 0 0 6,-3.27 c 3.48,2.43 7,7 7.66,15.82 l 2.76,-0.66 a 10.14,10.14 0 0 0 3.74,-1.64 7.24,7.24 0 0 0 2.21,-2.72 v 0 -0.11 l 0.15,-0.33 v 0 a 15.69,15.69 0 0 0 0.18,-11.68 z"
     id="path490" />
  <path
     class="cls-15"
     d="m 827.74503,8.6169981 -0.1,-0.15 v 0 a 12.67,12.67 0 0 0 -2.93,-3.14 c 5.43,5.2099999 2.6,13.6699999 2.6,13.6699999 0,0 0.58,-6.71 -2.84,-10.9199999 -3.42,-4.21 -10.58,-1.47 -10.73,-1.41 -0.15,0.06 -0.29,0.36 -0.41,0.53 -2.1,3.1599999 -4.35,6.8699999 -7.26,9.2399999 l 0.7,0.41 a 12,12 0 0 0 4.22,-1.82 8.17,8.17 0 0 1 -1.61,0.44 4.23,4.23 0 0 0 2.34,-2.19 14.71,14.71 0 0 1 1.54,-2.73 c 1.74,-2.0599999 5.47,-2.3699999 7.68,-0.9099999 a 5.74,5.74 0 0 1 2.08,6.6799999 2.83,2.83 0 0 0 1.27,-2 10,10 0 0 1 1.54,9.46 l 1.39,-1.32 a 8.38,8.38 0 0 1 -4.17,4.72 10.32,10.32 0 0 1 -2.73,0.91 c 0.05,0.42 0.09,0.84 0.13,1.29 l 2.76,-0.66 a 10.14,10.14 0 0 0 3.74,-1.64 7.24,7.24 0 0 0 2.21,-2.72 v 0 -0.11 l 0.15,-0.33 v 0 a 15.69,15.69 0 0 0 0.11,-11.67 15.28,15.28 0 0 0 -1.68,-3.6299999 z"
     id="path492" />
  <path
     class="cls-14"
     d="m 742.83503,13.316998 v 0 a 11.57,11.57 0 0 1 -0.86,-1.53 c -0.18,-0.41 -0.35,-0.82 -0.52,-1.23 -2.06,-4.9199999 -6.49,-7.8799999 -13,-6.3799999 -4.78,1.11 -8.42,3.55 -10.65,7.1899999 a 17,17 0 0 0 -0.77,16.66 20.36,20.36 0 0 0 11.22,9.78 c 2.19,0.83 3.58,0.85 4.48,0.56 -5.7,-1.14 -6.94,-4.64 -6.78,-9.23 0.19,-5.34 6.47,-7 6.47,-7 v 0 a 11.83,11.83 0 0 1 2.1,-0.59 8.52,8.52 0 0 0 3.74,-1.35 12,12 0 0 1 -5.46,-3.9 v 0 l -0.94,-1.17 v 0 l -0.51,-0.64 v 0 0 a 6,6 0 0 0 -3.93,-2.59 6.29,6.29 0 0 0 -4.41,0.85 c -1.85,2.08 -1.46,5.3 -1,6.63 a 7.41,7.41 0 0 1 -0.12,-5.72 6.65,6.65 0 0 0 -1.26,1.64 c 0.5,-2.08 2.08,-5.6399999 7.53,-6.4899999 5.45,-0.85 8.21,4.8899999 12.38,6.6799999 4.17,1.79 4.88,7.49 3.12,10 -1.76,2.51 -5.45,0.85 -5.45,0.85 a 4.35,4.35 0 0 0 2.18,1.73 7.43,7.43 0 0 0 3.25,0.48 c 4.05,-0.3 6.41,-4.26 6.25,-7.35 a 33.05,33.05 0 0 1 -7.06,-7.88 z"
     id="path494" />
  <path
     class="cls-15"
     d="m 732.41503,22.106998 v 0 a 11.83,11.83 0 0 1 2.1,-0.59 8.52,8.52 0 0 0 3.74,-1.35 12,12 0 0 1 -5.46,-3.9 v 0 l -0.94,-1.17 v 0 l -0.51,-0.64 v 0 0 a 6,6 0 0 0 -3.93,-2.59 6.66,6.66 0 0 0 -2.9,0.17 c -0.09,0.08 -0.19,0.15 -0.27,0.23 a 8,8 0 0 0 -2.34,5.8 5.08,5.08 0 0 1 3.53,-3.95 c 2.37,-0.74 5.17,0.28 6.1,2.21 a 2.58,2.58 0 0 1 -0.36,2.95 7.36,7.36 0 0 1 -2.8,1.34 c -3.51,1.32 -6,4.69 -5.73,7.91 a 27.63,27.63 0 0 1 -4.62,-7.72 11.15,11.15 0 0 1 0.33,-8.77 c 1.48,-2.9099999 4.49,-5.1499999 7.77,-6.5999999 a 31.3,31.3 0 0 1 4.36,-1.54 14.94,14.94 0 0 0 -2,0.32 c -4.78,1.11 -8.42,3.55 -10.65,7.1899999 a 17,17 0 0 0 -0.77,16.66 20.36,20.36 0 0 0 11.22,9.78 c 2.19,0.83 3.58,0.85 4.48,0.56 -5.7,-1.14 -6.94,-4.64 -6.78,-9.23 0.15,-5.38 6.43,-7.07 6.43,-7.07 z"
     id="path496" />
  <path
     class="cls-15"
     d="m 721.90503,19.226998 v 0 a 9.88,9.88 0 0 1 0,-1.22 3.46,3.46 0 0 0 0,1.22 z"
     id="path498" />
  <polygon
     class="cls-15"
     points="849.26,289.95 849.26,289.96 "
     id="polygon500"
     transform="translate(-127.34497,-270.683)" />
  <path
     class="cls-15"
     d="m 749.81503,21.246998 a 7.72,7.72 0 0 1 -6,5.32 7.15,7.15 0 0 0 1.41,-6.27 12.15,12.15 0 0 0 -3.38,-5.56 16.42,16.42 0 0 0 -8.54,-4.7 c 2.48,1.64 4.53,4.27 7.12,5.38 4.16,1.8 4.88,7.49 3.12,10 -1.76,2.51 -5.45,0.85 -5.45,0.85 a 4.35,4.35 0 0 0 2.18,1.73 7.43,7.43 0 0 0 3.25,0.48 c 4.05,-0.28 6.39,-4.16 6.29,-7.23 z"
     id="path502" />
  <path
     class="cls-16"
     d="m 828.86503,81.927 c -0.63,0.12 -1,0.2 -3.28,0.45 l -5.93,9.72 2.7,-9.39 c -2.25,0.13 -5.5,0.17 -8.24,0 a 48.27,48.27 0 0 1 -1.54,11.37 l 11,-0.16 c 3.23,-3.47 6.23,-8.62 8.51,-12.8 -1.09,0.33 -2.14,0.58 -3.22,0.81 z"
     id="path504" />
  <path
     class="cls-17"
     d="m 832.02503,81.147 c -1,0.3 -2.08,0.55 -3.16,0.78 -0.63,0.12 -1,0.2 -3.28,0.45 l -5.93,9.72 2.7,-9.39 c -1.88,0.1 -4.45,0.15 -6.84,0.08 l 4.72,1.15 -1,9.07 7.8,-9.26 1.9,-0.37 c 0,0 -5.13,9 -6.28,9.63 -0.91,0.49 -7.46,0.9 -10,1.05 v 0.05 l 11,-0.16 c 3.09,-3.47 6.09,-8.63 8.37,-12.8 z"
     id="path506" />
  <path
     class="cls-1"
     d="m 851.15503,65.956998 c -0.13,0.09 -0.25,0.19 -0.37,0.29 a 9.58,9.58 0 0 1 -4.72,1.27 9.09,9.09 0 0 1 -4.6,-1.24 8,8 0 0 1 -2.08,-2.56 c -0.78,-1.42 -1.13,-1.13 -3.36,-1.37 a 10.65,10.65 0 0 1 -3,-0.87 22.14,22.14 0 0 1 -5.1,-3.16 c -4.18,-3.51 -4.71,-7.82 1.48,-10.06 a 37.24,37.24 0 0 1 6.56,-1.62 42.4,42.4 0 0 0 -14.77,0.81 v 0 c 0,0 -3.82,-2.77 -14.19,-0.35 l 1.41,0.35 c 0,0 -7.57,1.67 -12.11,4.7 0.62,-0.61 1.34,-1.3 2,-2 a 13,13 0 0 0 2.35,-13.16 c 2.67,1.81 4.52,6.18 4.77,9.28 a 16.7,16.7 0 0 1 2.68,-1.43 c 0,-0.09 0,-0.17 0,-0.27 -0.12,-1.28 -0.23,-2.56 -0.35,-3.84 0.33,0.92 0.65,1.85 1,2.79 0.12,0.31 0.23,0.59 0.34,0.83 a 40,40 0 0 1 10.37,-4.23 c 2.89,-0.78 3.92,-5.95 2.83,-8.66 a 35.19,35.19 0 0 0 -10,2.54 16,16 0 0 1 5.54,-3.42 c -0.43,-4 -2.69,-10.88 -4.39,-14.62 l -1.3,5.36 c 0,0 -5.12,-2.49 -11.18,-4.84 0,0 -9.73,-4.16 -18.91,-1.81 a 29.76,29.76 0 0 1 13.86,-1.57 c -6.07,-3.5199999 -17,-8.2999999 -29.57,-6.5099999 0,0 9.13,0.38 15.1,4.8399999 -0.44,-0.25 -9,-4.9299999 -23.57,-0.12 a 34,34 0 0 1 5.4,0.58 c -1.39,0.22 -2.92,0.49 -4.3,0.76 l 4.32,0.71 c -4.83,0.65 -8.2,2.67 -11.57,5.5 0.79,4.93 -1.44,11 -8.33,11.46 a 9.64,9.64 0 0 1 -1.7,0 38.58,38.58 0 0 0 -3.4,8.42 21,21 0 0 1 7.5,1.57 c 0,0 -20.32,-3.18 -41,13.57 l 4,-1 c 0,0 -9.27,4.88 -15,10.65 0,0 5.55,-2.8 10.08,-3.15 -5.55,5.11 -18.87,9.29 -18.87,9.29 4.6,0.73 8.65,0 12.72,0.24 -8.07,2.29 -16.36,4.16 -22.21,9.93 4,-0.39 5.33,1.100002 3.88,4.190002 -1.3,2.73 -2.79,5.71 -5.82,7.15 -10.41,4.91 -19,21.58 -20.53,29.69 a 26.12,26.12 0 0 1 -7.55,13.66 c -3.06,3.1 -6.43,6 -8.84,9.51 -1.82,2.64 -1.68,4.42 0.61,6.63 a 27,27 0 0 0 3.68,3.18 c 2,1.3 3.83,2.66 5.75,4 a 18.75,18.75 0 0 1 -6.36,-1.84 c -3.6,-1.65 -6.92,-3.59 -8.4,-7 -0.25,-0.57 -0.83,-0.7 -1.45,-0.32 -2.53,1.57 -4.85,3.26 -5,6.12 -0.09,1.32 -0.25,2.63 -0.4,3.95 -1.81,15.58 -10.61,18 -13.34,25.58 a 7.19,7.19 0 0 0 0.37,5 12.66,12.66 0 0 1 -2.33,-0.42 c -1.61,-0.66 -2,0.06 -2.29,1.18 -2.5,9.21 -24.37,25.62 -25.66,34.95 -0.24,1.76 -1.37,9.29 -1.81,11.44 2,-1.9 3.91,-9.58 6,-11.19 a 0.24,0.24 0 0 0 0.08,-0.06 v 0.08 c -0.81,10.6 -4.81,24 -9.94,33.74 2.41,-1.55 6.43,-7 8.66,-8.83 a 13.51,13.51 0 0 1 1.18,4.46 2.44,2.44 0 0 1 -0.15,1 c 0,0.7 0.41,0.28 0.41,0.7 0.75,-0.24 -0.5,0.2 0.58,0.29 -1.09,3.11 -3.82,5.21 -6.88,7.41 5.07,0.26 8.9,-1.88 13.34,-3.25 l 0.12,-0.05 a 0.33,0.33 0 0 1 -0.06,0.1 c -1.59,2.5 -3.68,4.47 -4.51,7.14 2.81,-0.83 5.17,-2.09 8.31,-2.39 h 0.21 a 0.86,0.86 0 0 1 -0.13,0.14 c -3.24,3.47 -6.73,6.45 -8.32,10.39 a 55.29,55.29 0 0 1 12.93,-5.2 c 12.86,-3.81 28.75,3.43 35.48,4.91 a 119.52,119.52 0 0 0 20.15,2.81 c 4.54,0.19 9.11,0 13.29,-1.9 3.24,-1.5 4.64,-4.27 6.61,-6.62 2.7,-2.33 5,-5 9.19,-6.41 h 0.12 a 0.34,0.34 0 0 1 -0.09,0.08 l -2.44,2.48 c -0.43,0.48 -0.69,0.92 0,1.43 l 0.2,0.18 a 19.59,19.59 0 0 0 2.55,2.2 v 0 c 1,0.78 2.09,1.45 2.87,1.93 0.78,0.48 1.31,0.77 1.31,0.77 l 2.82,-1.67 c 0.34,-0.2 14.54,-15.89 14.72,-21.14 0.18,-5.25 0.41,-11.77 0.31,-23.3 -0.1,-11.53 0.62,-14.93 -4.36,-25.27 -2.77,-5.76 -7.52,-10 -11.16,-12.58 a 37.44,37.44 0 0 0 -5.08,-3.1 c 0,-0.15 2.4,-0.48 2.4,-0.61 0,-1.56 6.71,-9.45 8.52,-16.89 -0.1,0 -0.67,0 -1.51,-0.08 0.78,-14.35 5.42,-23.28 9.76,-28.9 2.34,-3 6.87,-8 10.88,-15.83 3.29,-1.35 8.23,-3.32 8.74,-3.24 a 22.87,22.87 0 0 1 3.93,1.1 13.51,13.51 0 0 0 4.42,2.88 2.6,2.6 0 0 1 0.31,0.5 8.75,8.75 0 0 0 2.26,0.46 38.67,38.67 0 0 0 9.4,-0.77 c 2.53,-0.47 4.81,-1 6.19,-1.37 v 0 l 1.22,-0.32 v 0 a 14.45,14.45 0 0 0 8.87,-7 c 0.08,-0.14 0.17,-0.29 0.24,-0.44 0.1,0.15 0.18,0.28 0.26,0.42 a 19.61,19.61 0 0 0 3.41,4.13 c 1.89,1.69 1.91,1.71 2.87,-0.39 0.29,-0.62 0.64,-1.23 0.91,-1.86 1.26,-3 2.81,-9.3 2.17,-12.5 a 25.77,25.77 0 0 1 -4.26,1.08 23.55,23.55 0 0 1 -17.3,-3.76 52.52,52.52 0 0 0 23,-1.14 l -7.76,-5.6 c 0,0 13.95,-0.3 24,-2.41 a 35.11,35.11 0 0 0 6.18,-1.79 29.7,29.7 0 0 0 7.45,-3.77 34.53,34.53 0 0 0 6.83,-6.41 66,66 0 0 1 -9,-1.920002 c -11.13,3.850002 -42.85,4.000002 -42.33,-16.38 0,0 0,-0.2 0,-0.57 v -0.21 a 1.79,1.79 0 0 1 0,-0.23 22.78,22.78 0 0 1 0.81,-4.29 1.27,1.27 0 0 0 0,-0.14 13.67,13.67 0 0 1 1.09,-2.57 c 0.13,-0.23 0.27,-0.45 0.41,-0.68 v 0 a 8.71,8.71 0 0 1 0.64,-0.83 c 0.41,0.15 4.53,2.79 6.21,4 a 23.35,23.35 0 0 1 2.47,1.76 c 4.15,3.39 10.09,8.68 14.13,11.1 a 71.75,71.75 0 0 0 6.37,3.4 63.31,63.31 0 0 0 9.94,3.61 c 8.9,2.48 11.54,3.870002 20.93,3.000002 8.22,-0.780002 17,-3.690002 21.65,-10.000002 -1.16,3.28 -5,7.12 -5,7.12 14.19,-2.04 13.67,-13.21 11.1,-11.47 z"
     id="path508" />
  <path
     class="cls-18"
     d="m 752.10503,102.367 a 23.55,23.55 0 0 0 17.3,3.76 25.77,25.77 0 0 0 4.26,-1.08 c 0.64,3.2 -0.91,9.46 -2.17,12.5 -0.27,0.63 -0.62,1.24 -0.91,1.86 -1,2.1 -1,2.08 -2.87,0.39 a 19.61,19.61 0 0 1 -3.41,-4.13 c -0.08,-0.14 -0.16,-0.27 -0.26,-0.42 -0.07,0.15 -0.16,0.3 -0.24,0.44 a 14.45,14.45 0 0 1 -8.87,7 v 0 l -1.22,0.32 v 0 c -1.38,0.35 -3.66,0.9 -6.19,1.37 a 38.67,38.67 0 0 1 -9.4,0.77 8.75,8.75 0 0 1 -2.26,-0.46 2.6,2.6 0 0 0 -0.31,-0.5 13.51,13.51 0 0 1 -4.42,-2.88 22.87,22.87 0 0 0 -3.93,-1.1 c -0.51,-0.08 -5.45,1.89 -8.74,3.24 -4,7.81 -8.54,12.82 -10.88,15.83 -4.34,5.62 -9,14.55 -9.76,28.9 0.84,0.07 1.41,0.08 1.51,0.08 -1.81,7.44 -8.51,15.33 -8.52,16.89 0,0.13 -2.4,0.46 -2.4,0.61 a 37.44,37.44 0 0 1 5.08,3.1 c -3.8,2.49 -7.76,4.85 -11.44,7.27 -1.33,0.88 -2.94,1.78 -4.56,1.4 -3.17,-0.73 -3.06,-6.31 -6.27,-6.87 4.74,-13.81 9.66,-27.94 19.53,-39.54 -5.57,1.07 -11.79,-1.42 -14.47,-5.78 a 30.5,30.5 0 0 0 13,-1.93 6.8,6.8 0 0 1 -3.83,-0.72 c 3.17,-0.68 6.56,-1.48 8.6,-3.68 0.89,-1 1.46,-2.13 2.35,-3.09 1.58,-1.69 4,-2.58 6.27,-3.56 a 51.22,51.22 0 0 0 14.15,-9 l -5.83,0.38 c 0.29,-1.25 0.57,-2.5 0.86,-3.75 a 28.39,28.39 0 0 1 -12.91,4 c -3.41,0.22 -6.85,-0.16 -10.28,-0.15 -3.43,0.01 -7,0.5 -9.8,2.2 l 5.5,-4.25 -5.26,0.82 a 15.41,15.41 0 0 0 -1.76,-7 147.69,147.69 0 0 0 19.41,-1 c 6.41,-0.92 12.74,-2.74 18,-6 -0.05,1.18 -0.11,2.35 -0.17,3.54 1.76,-2.08 5,-2.54 7.94,-3 2.94,-0.46 6.2,-1.4 7.27,-3.8 l -6,1.53 5.13,-9.58 a 23.34,23.34 0 0 0 -10.14,1.1 32.52,32.52 0 0 1 15.6,-13.35 22.25,22.25 0 0 1 7.57,-1.89 20.13,20.13 0 0 1 9.82,2.23 35.38,35.38 0 0 1 7.92,5.63 3.85,3.85 0 0 1 -0.1,-1.94 27,27 0 0 0 6.51,2.72 c -0.2,-0.88 -0.39,-1.77 -0.59,-2.65 a 111,111 0 0 0 12.76,0.52 35.92,35.92 0 0 0 12.39,-2.41 29.13,29.13 0 0 1 0.8,6 c -10.06,2.11 -24,2.41 -24,2.41 l 7.76,5.6 a 52.52,52.52 0 0 1 -23.12,1.1 z"
     id="path510" />
  <path
     class="cls-18"
     d="m 704.55503,201.497 c -4.31,-8.95 -13.33,-14.16 -15.67,-15.4 a 87.18,87.18 0 0 0 -9.14,-0.67 43,43 0 0 0 -7,0.33 c -0.19,0.3 -0.39,0.6 -0.56,0.92 -3.2,6 -0.06,12.58 0.73,18.93 1.36,10.87 -5.05,22.6 -15.85,29 a 20.24,20.24 0 0 0 15.4,-7.55 c -1.64,5.92 -3.32,11.91 -6.59,17.38 -3.27,5.47 -11.92,5.06 -18.49,7.33 -13,4.5 -24.49,2.82 -37.25,8 l 6,-13.7 a 30.62,30.62 0 0 1 -19.33,6.14 l 5.35,-6 -5.58,3.56 c -1.61,-10.37 2.82,-21.62 11.58,-29.42 l -11,7.91 c -1.6,-4.57 0.57,-9.78 4,-13.78 3.43,-4 8.13,-7.09 12.45,-10.41 4.32,-3.32 8.49,-7.12 10.4,-11.79 a 15.08,15.08 0 0 1 -7.66,2.11 c 2.52,-3.42 3.93,-7.32 6.08,-10.91 2.15,-3.59 5.34,-7.1 9.74,-8.35 3.19,-0.91 6.57,-0.52 9.87,-0.67 a 29.55,29.55 0 0 0 16.43,-6 27.37,27.37 0 0 1 -17.69,-3.56 30.45,30.45 0 0 0 14.17,-1.51 16.1,16.1 0 0 1 -6.25,-12 12.1,12.1 0 0 1 1.57,-6.64 c 1.8,-3 5.09,-5.17 7.68,-7.75 8.5,-8.46 8.84,-20.66 14.86,-30.53 5.62,-9.2 16.47,-16.05 28.11,-17.75 -6.52,-0.66 -13.08,-1.35 -19.7,-0.84 a 25.74,25.74 0 0 1 11.25,-4.19 l -8,-2.4 a 54.36,54.36 0 0 1 28.57,-9.000002 17.37,17.37 0 0 0 -7.81,-0.87 l 10.62,-2 -14.72,-0.17 c 3.3,-5.28 8.58,-9.54 14.39,-12.83 a 124.34,124.34 0 0 1 18.53,-8 l -9.32,1.21 a 63.74,63.74 0 0 1 37.42,-6.88 c -6,-1.28 -12,-2.31 -18.09,-3.09 a 13.83,13.83 0 0 1 1.75,0.66 c 0,0 -20.33,-3.18 -41,13.57 l 4,-1 c 0,0 -9.28,4.88 -15,10.65 0,0 5.55,-2.8 10.07,-3.16 -5.54,5.12 -18.86,9.3 -18.86,9.3 4.6,0.73 8.65,0 12.72,0.23 -8.07,2.3 -16.36,4.17 -22.2,9.94 4,-0.39 5.32,1.100002 3.87,4.190002 -1.29,2.73 -2.79,5.71 -5.82,7.14 -10.41,4.92 -19,21.59 -20.53,29.7 a 26.06,26.06 0 0 1 -7.55,13.65 c -3.06,3.11 -6.42,6 -8.84,9.53 -1.82,2.63 -1.68,4.41 0.61,6.62 a 26.86,26.86 0 0 0 3.67,3.18 c 2,1.3 3.84,2.67 5.76,4 a 18.69,18.69 0 0 1 -6.35,-1.84 c -3.61,-1.65 -6.93,-3.59 -8.41,-7 -0.26,-0.57 -0.83,-0.7 -1.45,-0.32 -2.53,1.57 -4.86,3.26 -5,6.12 -0.09,1.32 -0.25,2.64 -0.4,3.95 -1.8,15.58 -10.61,18 -13.34,25.58 a 7.27,7.27 0 0 0 0.36,5 12.7,12.7 0 0 1 -2.32,-0.42 c -1.61,-0.65 -2,0.06 -2.29,1.18 -2.51,9.21 -24.37,25.62 -25.66,34.95 -0.25,1.76 -1.38,9.29 -1.81,11.44 2,-1.9 3.91,-9.58 6,-11.19 l 0.08,-0.06 a 0.28,0.28 0 0 0 0,0.09 c -0.81,10.6 -4.81,24 -9.94,33.73 2.4,-1.53 6.38,-6.9 8.61,-8.78 v 0 a 0.2,0.2 0 0 0 0,0.07 31.1,31.1 0 0 1 0.77,6.52 c 1.15,0 0,-0.25 1.24,-0.15 -1.1,3.11 -3.82,5.2 -6.88,7.41 5.07,0.26 8.91,-1.88 13.34,-3.25 h 0.12 l -0.06,0.09 c -1.59,2.5 -3.67,4.47 -4.51,7.14 2.81,-0.83 5.17,-2.09 8.31,-2.39 h 0.21 l -0.13,0.15 c -3.24,3.46 -6.73,6.44 -8.32,10.38 a 54.77,54.77 0 0 1 12.94,-5.2 c 12.86,-3.81 28.68,5 35.4,6.45 6.72,1.45 13.36,1 20.22,1.27 4.54,0.19 9.11,0 13.29,-1.9 3.24,-1.5 4.64,-4.26 6.61,-6.62 2.7,-2.33 5,-5 9.19,-6.41 h 0.12 l -0.08,0.09 c -1,1 -1.71,1.83 -2.44,2.63 -0.44,0.48 -0.69,0.92 0,1.44 l 0.21,0.17 a 20.45,20.45 0 0 0 2.55,2.21 v 0 c 1,0.78 2.09,1.45 2.87,1.93 0.78,0.48 1.31,0.77 1.31,0.77 l 2.82,-1.67 c 0.34,-0.2 14.54,-15.9 14.72,-21.14 0.18,-5.24 0.41,-11.77 0.32,-23.29 -0.09,-11.52 0.61,-15.15 -4.37,-25.49 z"
     id="path512" />
  <path
     d="m 712.29503,129.317 c 0,0 -21.36,22.78 -29.11,57.65 1.56,-0.53 2.3,11.87 3.8,11.28 24,-9.45 40.2,-38.45 40.2,-38.45 0,0 -0.85,1.41 -0.67,-4 0.18,-5.41 1.32,-18.43 0.67,-20.41 -0.65,-1.98 -14.89,-6.07 -14.89,-6.07 z"
     id="path514" />
  <path
     class="cls-18"
     d="m 743.94503,62.396998 a 33.8,33.8 0 0 0 -10.71,3.92 14.93,14.93 0 0 1 4.85,0.63 20.92,20.92 0 0 0 -11.94,5.72 c 0,0 3.47,-1.17 5.25,-1 a 26.54,26.54 0 0 0 -12.49,8 22.92,22.92 0 0 1 5.4,-1.05 19.93,19.93 0 0 0 -11.55,12.500002 c 0,0 5.65,-10.35 17.06,-13.210002 a 13.94,13.94 0 0 0 -6.52,-0.06 c 0,0 3.67,-4.27 12.06,-6.54 a 9.35,9.35 0 0 0 -4.85,-0.33 25.71,25.71 0 0 1 10.15,-3.66 5.92,5.92 0 0 0 -4,-1.33 23.25,23.25 0 0 1 7.29,-3.59 z"
     id="path516" />
  <path
     class="cls-18"
     d="m 697.40503,101.607 a 27.56,27.56 0 0 0 -9.79,2.63 17.61,17.61 0 0 1 4.92,1 c 0,0 -6.72,-0.05 -10.63,4.21 a 16.47,16.47 0 0 1 5,-0.47 18.07,18.07 0 0 0 -10.7,6.28 20.73,20.73 0 0 1 5.13,-0.5 12.34,12.34 0 0 0 -8.86,10.44 18.43,18.43 0 0 1 14.18,-10.64 16.08,16.08 0 0 0 -6.46,-0.6 c 0,0 2.75,-3.59 10.58,-4.95 a 11.23,11.23 0 0 0 -4.86,-0.72 20,20 0 0 1 9.28,-2.47 8.28,8.28 0 0 0 -4.21,-1.56 16.65,16.65 0 0 1 6.42,-2.65 z"
     id="path518" />
  <path
     class="cls-18"
     d="m 646.75503,183.067 a 22.06,22.06 0 0 0 -9.37,5.67 c 0,0 3.28,-0.25 5.08,0.65 a 14.29,14.29 0 0 0 -9.95,8.22 c 0,0 3.06,-1.73 4.91,-1.58 0,0 -6.43,2.56 -9.7,11.37 a 15.13,15.13 0 0 1 5,-1.65 c 0,0 -7.39,4 -7.19,17.35 0,0 2,-14.21 12.46,-18.54 a 10.9,10.9 0 0 0 -6.55,0.19 c 0,0 2.18,-5.9 9.79,-9.32 a 7.76,7.76 0 0 0 -5,-0.25 17.22,17.22 0 0 1 8.89,-5.35 6.63,6.63 0 0 0 -4.46,-1.63 16.21,16.21 0 0 1 6.09,-5.13 z"
     id="path520" />
  <path
     class="cls-18"
     d="m 656.07503,213.687 a 19.33,19.33 0 0 0 -8.83,4.74 14.34,14.34 0 0 1 5.15,0.74 c 0,0 -6.63,0.74 -9.15,7 0,0 2.9,-1.44 4.76,-1.25 a 15,15 0 0 0 -8.58,9.8 14.55,14.55 0 0 1 4.89,-1.3 c 0,0 -7,3.35 -5.47,15.2 0,0 0.61,-12.58 10.64,-16.09 a 12.32,12.32 0 0 0 -6.55,0 c 0,0 1.59,-5.19 8.88,-8 a 9,9 0 0 0 -5,-0.39 c 0,0 2.59,-3.32 8.37,-4.46 a 8.12,8.12 0 0 0 -4.63,-1.6 12.77,12.77 0 0 1 5.52,-4.39 z"
     id="path522" />
  <path
     class="cls-18"
     d="m 807.33503,28.806998 h 0.57 a 1.36,1.36 0 0 0 -0.57,0 z"
     id="path524" />
  <path
     class="cls-18"
     d="m 851.16503,65.956998 a 2.8,2.8 0 0 0 -0.37,0.29 v 0 a 9.14,9.14 0 0 1 -9.32,0 7.76,7.76 0 0 1 -2.09,-2.55 c -0.78,-1.42 -1.13,-1.13 -3.36,-1.37 a 10.74,10.74 0 0 1 -3,-0.87 21.8,21.8 0 0 1 -5.1,-3.16 c -4.18,-3.52 -4.71,-7.82 1.48,-10.06 a 37.46,37.46 0 0 1 6.56,-1.62 42.38,42.38 0 0 0 -14.77,0.81 v 0 c 0,0 -3.82,-2.77 -14.19,-0.36 l 1.41,0.36 c 0,0 -7.56,1.67 -12.1,4.7 0.61,-0.61 1.33,-1.3 2,-2 a 13,13 0 0 0 2.34,-13.13 c 2.67,1.79 4.53,6.17 4.78,9.27 a 16.16,16.16 0 0 1 2.67,-1.43 c 0,-0.08 0,-0.17 0,-0.27 -0.11,-1.28 -0.23,-2.56 -0.35,-3.84 0.32,0.93 0.65,1.85 1,2.78 0.12,0.32 0.23,0.6 0.34,0.83 a 40.13,40.13 0 0 1 10.37,-4.22 c 2.89,-0.77 3.91,-5.95 2.83,-8.66 a 35.67,35.67 0 0 0 -10,2.54 16.13,16.13 0 0 1 5.54,-3.41 c -0.41,-4 -2.68,-10.9 -4.38,-14.64 l -1.31,5.37 c 0,0 -5.11,-2.5 -11.18,-4.85 0,0 -9.73,-4.15 -18.91,-1.8 a 29.7,29.7 0 0 1 13.85,-1.57 c -6.07,-3.5199999 -17,-8.2999999 -29.56,-6.5099999 0,0 9.15,0.38 15.12,4.8499999 0,0 -8.58,-5.0699999 -23.59,-0.13 a 34,34 0 0 1 5.4,0.58 c -1.39,0.22 -2.92,0.48 -4.3,0.75 l 4.32,0.72 c -4.83,0.65 -8.2,2.67 -11.57,5.49 a 10.79,10.79 0 0 1 -1.8,8.16 11.15,11.15 0 0 0 3.87,-6.43 c 0.17,1.14 0.35,2.27 0.52,3.41 1.58,-4.27 6,-7.78 11,-8.76 l -1.55,2.5 a 17.09,17.09 0 0 1 15.47,-2.52 l -2.69,3 a 39.43,39.43 0 0 1 19.22,1 31.89,31.89 0 0 1 15,9.82 l -2.85,-0.16 a 1.73,1.73 0 0 1 1.09,2.19 7.63,7.63 0 0 1 -2.28,2.63 c -0.88,0.8 -1.69,1.86 -1.43,2.9 l 4.26,-0.8 a 6.73,6.73 0 0 0 1,4.36 10.44,10.44 0 0 0 -3.6,-1.42 c -0.16,0.68 -0.31,1.35 -0.47,2 a 13.34,13.34 0 0 0 -8.36,-7 c 0.06,0.6 0.11,1.21 0.17,1.82 a 2.56,2.56 0 0 0 -2.45,-1.09 14.25,14.25 0 0 0 -3.78,1.35 c -1.25,0.49 -2.87,0.69 -3.76,-0.13 l 1.61,-1.62 c -2.68,-0.4 -4.6,-2.26 -6.68,-3.71 a 15.49,15.49 0 0 0 -9.7,-3 c -3.59,0.22 -8.06,2.9 -8.77,7.48 a 10.26,10.26 0 0 1 5.12,-1.47 l -1,0.72 h 1 a 8,8 0 0 0 -0.55,7.14 12.23,12.23 0 0 0 4.91,5.59 l -3.44,-0.12 a 7,7 0 0 0 3.86,4.61 9.67,9.67 0 0 0 6.7,0.49 26.24,26.24 0 0 0 4.92,-2.3 10.9,10.9 0 0 1 5.2,-1.53 l -1.66,1.82 c 0.9,-1 2.52,-1.13 3.91,-1.07 a 8.47,8.47 0 0 0 4.14,-0.42 13.74,13.74 0 0 1 -1.83,3.1 5.62,5.62 0 0 1 -3.21,2 c 6,-0.27 11.32,-4.1 17.32,-4.68 a 15.5,15.5 0 0 0 -1.24,1.33 40.73,40.73 0 0 1 14.68,-0.18 8.58,8.58 0 0 0 2.81,10.26 3.87,3.87 0 0 1 -2.29,-0.31 5.16,5.16 0 0 0 4.38,4.31 c 1.54,0.27 3.18,0 4.74,0.18 a 6.61,6.61 0 0 1 5,3.17 l 1,-1.89 c -0.35,1.27 1,2.28 2.39,2.74 1.39,0.46 2.93,0.75 3.69,1.81 l -0.74,-0.49 a 21.24,21.24 0 0 1 -8.41,4.09 54.44,54.44 0 0 1 -9.43,1.38 l 1.53,-2.84 c -1.59,1.58 -4.15,2.09 -6.5,2.21 -7.13,0.36 -14.17,-2.13 -18.74,-6.61 a 10,10 0 0 0 0.57,4.63 c -7.9,-4.78 -17.4,-7.39 -25.33,-12.14 -3.94,-2.36 -7.46,-5.24 -11.66,-7.26 -4.2,-2.02 -9.37,-3.11 -14.09,-1.61 a 17.89,17.89 0 0 1 6.79,2.13 c -2.37,1 -3.51,3.43 -4,5.66 a 16.64,16.64 0 0 0 7.32,17 6.75,6.75 0 0 1 -2.87,-0.75 c 3,4.820002 8.34,8.300002 14.41,10.000002 a 42.4,42.4 0 0 0 19.16,0.29 78.77,78.77 0 0 1 -15,5.16 45,45 0 0 1 5.29,3.65 c 5.18,-0.63 10.46,-1.59 13.92,-3 v 0 a 31.17,31.17 0 0 0 14.28,-10.18 66,66 0 0 1 -9,-1.920002 c -11.14,3.850002 -42.85,4.000002 -42.34,-16.37 0,0 0,-0.21 0,-0.58 a 1.65,1.65 0 0 1 0,-0.21 2,2 0 0 1 0,-0.23 22.78,22.78 0 0 1 0.81,-4.29 c 0,0 0,-0.08 0,-0.13 a 12.64,12.64 0 0 1 1.09,-2.58 c 0.13,-0.23 0.26,-0.46 0.41,-0.68 v 0 a 7.81,7.81 0 0 1 0.65,-0.84 c 0.39,0.15 4.52,2.8 6.2,4 a 25.14,25.14 0 0 1 2.47,1.78 c 4.15,3.38 10.09,8.67 14.14,11.09 a 70.24,70.24 0 0 0 6.36,3.4 64.33,64.33 0 0 0 9.94,3.61 c 8.89,2.48 11.54,3.870002 20.93,3.000002 8.22,-0.780002 17,-3.690002 21.66,-10.000002 -1.17,3.28 -5,7.12 -5,7.12 14.1,-2.22 13.59,-13.4 11.03,-11.66 z"
     id="path526" />
  <path
     class="cls-19"
     d="m 775.77503,200.317 a 88.13,88.13 0 0 1 -2.82,15.11 76.63,76.63 0 0 1 -4.59,12.68 v 0 a 20.79,20.79 0 0 1 -2.27,3.78 c -0.12,0.14 -0.24,0.3 -0.38,0.45 a 129.61,129.61 0 0 1 -17.7,21.5 v 0 c -3,3 -6.91,5.3 -10.94,7.49 -9.37,5.11 -19.85,7.76 -30.56,9.91 -1.85,0.37 -3.71,0.73 -5.57,1 -0.65,0.11 -1.3,0.22 -1.95,0.31 l -0.75,0.11 c -0.56,0.08 -1.12,0.16 -1.68,0.22 -0.56,0.06 -1.11,0.14 -1.67,0.19 l -1.68,0.16 a 4.12,4.12 0 0 1 -2.36,-0.51 c -0.71,-0.38 -1,-0.7 -0.69,-1.26 v 0 a 0.35,0.35 0 0 1 0,-0.08 l 0.07,-0.1 c 0.78,-1.23 5.14,-8.73 6.93,-23.85 1.3,-10.88 -3.77,-27 -7.45,-36.93 -0.22,-0.62 -0.44,-1.24 -0.64,-1.86 a 41.43,41.43 0 0 1 -1.39,-5.53 1.36,1.36 0 0 1 -0.06,-0.29 c -0.1,-0.55 -0.19,-1.1 -0.26,-1.66 v -0.22 c -0.08,-0.59 -0.15,-1.16 -0.2,-1.75 a 45.21,45.21 0 0 1 -0.15,-5.46 c 0,-0.31 0,-0.62 0,-0.92 0,-0.3 0.05,-0.82 0.09,-1.23 0.04,-0.41 0.07,-0.81 0.12,-1.22 0.05,-0.41 0.09,-0.81 0.15,-1.22 0.06,-0.41 0.12,-0.81 0.19,-1.21 0.07,-0.4 0.14,-0.82 0.23,-1.22 0.09,-0.4 0.09,-0.52 0.15,-0.78 0.18,-0.79 0.35,-1.51 0.51,-2.14 0.3,-1.64 6.15,-13 10.74,-15.52 a 63.85,63.85 0 0 0 8.42,-0.28 l 0.75,-0.07 h 0.06 c 5.34,-0.83 10.54,-5.65 9.7,-6.67 a 34.12,34.12 0 0 0 -4.74,-3.55 15.74,15.74 0 0 0 4.7,-1 24.56,24.56 0 0 1 -5.65,-2.55 1.5,1.5 0 0 1 -0.31,-0.19 15.89,15.89 0 0 1 -4.07,-6.82 c 0.91,0.47 6.28,-0.68 6.28,-0.68 -4.2,-5 -1.38,-11.56 -1.38,-11.56 a 46,46 0 0 1 3.74,-7.5 c 0.66,-1 2.68,-3 3.59,-4.43 0.91,-1.43 0.33,0.11 0.89,-1.48 v 0 c 0,0 6.05,-5.95 9.19,-4.44 2.12,1 4,4.94 9.19,7.15 0.43,0.18 0.89,0.35 1.37,0.5 0.24,0.08 0.48,0.16 0.73,0.22 l 0.78,0.2 c 0.53,0.13 1.07,0.23 1.65,0.32 0.58,0.09 1.22,0.16 1.87,0.2 0.65,0.04 1.18,0.11 1.8,0.13 v 0 c 5.29,0.2 10.94,-1 14.16,-4.13 a 12.13,12.13 0 0 0 2.28,-2.46 c 0.35,0.39 5.39,4.06 5.84,5.17 a 7.58,7.58 0 0 1 0,3.08 c 0,0.12 0,0.24 0,0.37 a 28.55,28.55 0 0 0 0.34,3 c 0.72,5.85 2.6,12.9 3.67,18.68 1,5.5 -1,28.75 0,33.11 1.05,4.12 2.11,13.48 1.73,17.73 z"
     id="path528" />
  <path
     class="cls-19"
     d="m 716.04503,128.537 c 0,0 -20.21,22.13 -27.95,57 a 120.89,120.89 0 0 0 44,-27.17 c 0,0 -0.84,1.42 -0.66,-4 0.18,-5.42 1.32,-18.43 0.66,-20.41 -0.66,-1.98 -16.05,-5.42 -16.05,-5.42 z"
     id="path530" />
  <path
     class="cls-20"
     d="m 775.77503,200.317 a 88.13,88.13 0 0 1 -2.82,15.11 76.63,76.63 0 0 1 -4.59,12.68 v 0 a 20.79,20.79 0 0 1 -2.27,3.78 c -0.12,0.14 -0.24,0.3 -0.38,0.45 a 129.61,129.61 0 0 1 -17.7,21.5 v 0 c -3,3 -6.91,5.3 -10.94,7.49 -9.37,5.11 -19.85,7.76 -30.56,9.91 -1.85,0.37 -3.71,0.73 -5.57,1 -0.65,0.11 -1.3,0.22 -1.95,0.31 l -0.75,0.11 c -0.56,0.08 -1.12,0.16 -1.68,0.22 -0.56,0.06 -1.11,0.14 -1.67,0.19 l -1.68,0.16 a 4.12,4.12 0 0 1 -2.36,-0.51 c -0.71,-0.38 -1,-0.7 -0.69,-1.26 v 0 a 0.35,0.35 0 0 1 0,-0.08 l 0.07,-0.1 c 0.78,-1.23 5.14,-8.73 6.93,-23.85 1.3,-10.88 -3.77,-27 -7.45,-36.93 -0.22,-0.62 -0.44,-1.24 -0.64,-1.86 a 44.29,44.29 0 0 1 -1.39,-5.53 1.36,1.36 0 0 1 -0.06,-0.29 c -0.1,-0.55 -0.19,-1.1 -0.26,-1.66 v -0.22 c -0.08,-0.59 -0.15,-1.16 -0.2,-1.75 a 45.21,45.21 0 0 1 -0.15,-5.46 c 0,-0.31 0,-0.62 0,-0.92 0,-0.3 0.05,-0.82 0.09,-1.23 0.04,-0.41 0.07,-0.81 0.12,-1.22 0.05,-0.41 0.09,-0.81 0.15,-1.22 0.06,-0.41 0.12,-0.81 0.19,-1.21 0.07,-0.4 0.14,-0.82 0.23,-1.22 0.09,-0.4 0.16,-0.81 0.26,-1.21 h 7.47 a 28.72,28.72 0 0 0 -0.49,3.63 30.53,30.53 0 0 0 7.25,21.19 11.38,11.38 0 0 1 -5.54,-1.74 c 1.25,6.22 4.38,12.36 9.95,16.43 5.57,4.07 13.85,5.64 20.37,2.83 a 17.17,17.17 0 0 1 -5.63,6.66 32.89,32.89 0 0 0 18.36,-5.18 c -0.61,1.12 -1.21,2.24 -1.82,3.35 7.5,-0.05 14.85,-3.47 19,-8.86 a 31.87,31.87 0 0 1 -11.56,0.65 l 5,-2 -9.29,-0.67 c 6,0.15 11.71,-2.94 15.55,-7 3.84,-4.06 6.18,-9 8.45,-13.85 a 15.68,15.68 0 0 1 -12.36,3 17.44,17.44 0 0 0 8.22,-6.78 43.57,43.57 0 0 0 4.33,-9.26 12,12 0 0 1 -8.44,2 26.68,26.68 0 0 0 10.7,-15.58 10.15,10.15 0 0 1 -7.85,2.08 20.14,20.14 0 0 0 6.23,-12 7.67,7.67 0 0 1 -5.08,0.83 10.47,10.47 0 0 0 4,-5.79 8.42,8.42 0 0 1 -4.3,0.43 15.73,15.73 0 0 0 5.25,-9.81 42.57,42.57 0 0 0 -0.15,-11 8.76,8.76 0 0 1 -4.41,2.77 8.32,8.32 0 0 0 1.68,-6.95 l -4.45,4.28 a 8.34,8.34 0 0 0 0.86,-9.48 9.39,9.39 0 0 1 -10.79,-0.81 4,4 0 0 1 -0.3,2.21 c -3.64,-1.52 -7.37,-2.86 -11.16,-4.09 a 9.49,9.49 0 0 0 2.52,-2.82 v 0 c 0.43,0.18 0.89,0.35 1.36,0.51 l 0.73,0.22 0.78,0.2 c 0.52,0.12 1.07,0.23 1.65,0.32 0.58,0.09 1.22,0.16 1.87,0.2 0.65,0.04 1.18,0.11 1.8,0.13 v 0 c 5.29,0.2 10.94,-1 14.16,-4.13 a 12.13,12.13 0 0 0 2.28,-2.46 c 0.35,0.39 5.39,4.06 5.84,5.17 a 7.58,7.58 0 0 1 0,3.08 c 0,0.12 0,0.24 0,0.37 a 28.55,28.55 0 0 0 0.34,3 c 0.72,5.85 2.6,12.9 3.67,18.68 1,5.5 -1,28.75 0,33.11 0.99,4.14 2.05,13.5 1.67,17.75 z"
     id="path532" />
  <path
     d="m 698.17503,166.777 a 19.69,19.69 0 0 0 -3.09,2.36 24.5,24.5 0 0 0 -2.58,2.73 25.34,25.34 0 0 0 -3.68,6.13 29,29 0 0 0 -1.91,6.58 39,39 0 0 0 -0.42,6.73 52.12,52.12 0 0 0 2.22,13.22 48.38,48.38 0 0 0 2.3,6.28 c 1,2.06 2,4.21 2.93,6.4 a 70.28,70.28 0 0 1 4.23,13.6 59.34,59.34 0 0 1 1.17,14.23 57.76,57.76 0 0 1 -0.77,7.17 61.83,61.83 0 0 1 -4.1,13.94 l -0.77,1.69 c -0.28,0.55 -0.53,1.11 -0.84,1.66 -0.31,0.55 -0.6,1.08 -1,1.61 a 8.33,8.33 0 0 1 -0.54,0.78 4.92,4.92 0 0 1 -0.65,0.72 4,4 0 0 0 0.46,-0.8 6.17,6.17 0 0 0 0.37,-0.83 c 0.22,-0.55 0.41,-1.12 0.59,-1.69 0.18,-0.57 0.35,-1.14 0.52,-1.7 l 0.45,-1.72 c 0.56,-2.29 1,-4.59 1.37,-6.89 l 0.25,-1.73 c 0.07,-0.57 0.13,-1.15 0.19,-1.72 0.15,-1.15 0.21,-2.3 0.31,-3.45 a 67.94,67.94 0 0 0 0.09,-6.84 c 0,-0.56 0,-1.13 -0.08,-1.69 l -0.15,-1.68 -0.07,-0.85 -0.1,-0.84 -0.22,-1.68 c -0.36,-2.24 -0.73,-4.46 -1.29,-6.65 -0.25,-1.1 -0.56,-2.19 -0.85,-3.28 -0.29,-1.09 -0.64,-2.17 -1,-3.24 q -1.07,-3.21 -2.41,-6.36 c -0.87,-2.11 -1.85,-4.17 -2.83,-6.35 a 47.36,47.36 0 0 1 -2.3,-6.87 52.65,52.65 0 0 1 -1.29,-7.05 42.51,42.51 0 0 1 -0.22,-7.23 36.31,36.31 0 0 1 1.14,-7.26 29,29 0 0 1 2.91,-7 26.92,26.92 0 0 1 4.9,-6.1 22,22 0 0 1 6.76,-4.33 z"
     id="path534" />
  <path
     class="cls-21"
     d="m 845.87503,48.576998 c -4.44,-1.25 -12.76,0 -16.73,1.9 v 0 c 0,0 -3.87,1.47 -1.46,3.91 a 22.78,22.78 0 0 0 9.15,5.61 16.53,16.53 0 0 0 2.54,0.51 14.59,14.59 0 0 0 6.08,-6 c 0,0 0.42,6.39 -3.18,8.84 a 9.94,9.94 0 0 0 1.86,1.36 6.1,6.1 0 0 0 4.24,0.13 c 0.25,-0.07 0.5,-0.15 0.73,-0.24 l 0.13,-0.05 v 0 a 5.73,5.73 0 0 0 1.54,-0.94 c 2.25,-3.56 0.92,-9.18 0.92,-9.18 3,0.25 3.59,3 3.7,4.27 0.39,0.13 0.56,-0.28 1.21,-1.34 3.95,-6.37 -3.03,-11.3 -10.73,-8.78 z"
     id="path536" />
  <path
     class="cls-22"
     d="m 856.65503,57.366998 c 3.94,-6.38 -3,-11.31 -10.74,-8.79 a 20.93,20.93 0 0 0 -6.86,-0.41 5.41,5.41 0 0 1 2.22,0.74 4.19,4.19 0 0 1 2,3.09 7.4,7.4 0 0 1 6.92,-2.79 5.58,5.58 0 0 1 4.84,4.66 10.21,10.21 0 0 0 -4.31,-0.44 6.64,6.64 0 0 1 -0.83,6 9.21,9.21 0 0 1 -5.74,3.68 8.52,8.52 0 0 0 1.33,-8.55 c 0,0.59 0.24,6.46 -3.18,8.79 a 9.94,9.94 0 0 0 1.86,1.36 6.1,6.1 0 0 0 4.24,0.13 c 0.25,-0.07 0.5,-0.15 0.73,-0.24 l 0.13,-0.05 v 0 a 5.73,5.73 0 0 0 1.54,-0.94 c 2.25,-3.56 0.92,-9.18 0.92,-9.18 3,0.25 3.59,3 3.7,4.27 0.37,0.14 0.54,-0.27 1.23,-1.33 z"
     id="path538" />
  <path
     class="cls-22"
     d="m 839.65503,57.316998 a 16.33,16.33 0 0 1 -11.12,-2.1 22.6,22.6 0 0 0 8.29,4.79 16.53,16.53 0 0 0 2.54,0.51 14.63,14.63 0 0 0 6.07,-6 c -0.09,-0.21 -0.18,-0.41 -0.29,-0.61 a 7.49,7.49 0 0 1 -6.47,4.32 1.74,1.74 0 0 0 0.98,-0.91 z"
     id="path540" />
  <path
     class="cls-16"
     d="m 782.77503,72.556998 c -4,-3.26 -11.51,-11.26 -17,-15.08 a 63.88,63.88 0 0 0 5.28,9.1 h 2 l -1.91,2.29 1.78,-0.16 a 29.52,29.52 0 0 0 5.87,5.26 c 0,0 -5.37,-1.14 -7.18,-3.7 l -3,0.31 1.5,-2.2 a 28.6,28.6 0 0 1 -7.25,-7.57 c -0.27,3.41 0.16,8.08 3.48,11.68 5.92,6.43 21.83,7.940002 31.43,6.09 -0.03,-0.02 -10.5,-2.26 -15,-6.02 z"
     id="path542" />
  <path
     d="m 795.95503,35.596998 c 0,0 -1.27,5.11 -5.43,3.27 -4.16,-1.84 -13.11,-16.07 -19.87,-7.45 0,0 3.59,-1.72 4.92,0.27 a 10.55,10.55 0 0 0 -2.83,8.47 c 0.76,5 9.75,7.08 13.27,5.16 0,0 -4.53,3.6 -12,1.94 0,0 2,3.81 8.87,1 6.87,-2.81 9.31,-3.5 9.31,-3.5 l -2.65,1.81 a 19,19 0 0 1 12.54,1.63 11.22,11.22 0 0 0 -8.43,-6.25 c 0,0 4.18,-2.5 2.3,-6.35 z"
     id="path544" />
  <path
     class="cls-3"
     d="m 777.65503,32.606998 c 0,0 7.57,7.35 12.68,8.41 0,0 -2.4,3.43 -8.8,2.56 -6.4,-0.87 -7.32,-6.51 -3.88,-10.97 z"
     id="path546" />
  <ellipse
     cx="719.43018"
     cy="309.9812"
     rx="3.8800001"
     ry="3.1400001"
     transform="rotate(-20.5)"
     id="ellipse548" />
  <path
     d="m 813.39503,36.056998 c 0,0 -0.22,3.52 2.08,2.57 2.3,-0.95 8.92,-9.88 10.79,-3.62 0,0 -1.45,-1.4 -2.41,-0.16 a 8.5,8.5 0 0 1 0,5.89 c -1.17,3.27 -5.84,4.07 -7.22,2.54 a 5.25,5.25 0 0 0 5.45,2.13 c 0,0 -1.59,2.42 -4.43,0.07 a 37.65,37.65 0 0 0 -3.92,-3 l 0.32,0.86 a 12.34,12.34 0 0 0 -5.91,1.82 c 0,0 2.72,-3 5.46,-4.06 a 4.94,4.94 0 0 1 -0.21,-5.04 z"
     id="path550" />
  <path
     class="cls-3"
     d="m 822.70503,35.316998 c 0,0 -4.83,4.41 -7.47,4.76 0,0 0.61,2.47 3.83,2.33 3.22,-0.14 4.59,-3.86 3.64,-7.09 z"
     id="path552" />
  <ellipse
     cx="31.144501"
     cy="818.73114"
     rx="2.23"
     ry="1.83"
     transform="rotate(-85.07)"
     id="ellipse554" />
  <path
     class="cls-1"
     d="m 712.06503,116.317 3.85,-1.47 a 16.68,16.68 0 0 0 2.5,1.62 c 0.85,0.36 3.1,1.06 3.19,1.24 a 2.77,2.77 0 0 0 2.51,2.49 c 2.33,0.26 3.07,1.15 2.61,1.89 a 10.46,10.46 0 0 1 -2.28,2.62 c -1.44,1.33 -9.88,9.36 -13.24,10.87 -3.36,1.51 -9.87,6.41 -12.39,5.75 -2.52,-0.66 -7,-5.09 -7.29,-6.59 a 18.76,18.76 0 0 1 0.35,-6.58 c 0.53,-2 -0.42,-3.35 2.13,-5.19 a 35.16,35.16 0 0 1 7.65,-3.88 45.35,45.35 0 0 1 4.5,-1.37 c 2.72,-0.79 5.91,-1.4 5.91,-1.4 z"
     id="path556" />
  <path
     class="cls-18"
     d="m 712.06503,115.227 a 40.31,40.31 0 0 1 -4.82,1.79 c -1,0.28 -2,0.53 -3.06,0.78 -1.06,0.25 -1.88,0.76 -2.85,1.06 a 22.6,22.6 0 0 1 -3.85,0.65 73.22,73.22 0 0 0 -7.68,1.45 17.69,17.69 0 0 0 -6,3.11 l -0.37,0.27 a 27.54,27.54 0 0 1 5.14,-0.48 c 3.43,0 6.87,0.37 10.28,0.15 a 28.39,28.39 0 0 0 12.91,-4 c -0.29,1.25 -0.57,2.5 -0.86,3.75 l 5.83,-0.38 a 51.22,51.22 0 0 1 -14.15,9 c -2.26,1 -4.69,1.87 -6.27,3.56 -0.89,1 -1.46,2.13 -2.35,3.09 -2,2.2 -5.43,3 -8.6,3.68 a 6.8,6.8 0 0 0 3.83,0.72 30.62,30.62 0 0 1 -7.83,1.85 c 0.7,0.26 1.39,0.52 2.1,0.76 a 26.87,26.87 0 0 0 5.82,1.63 10.47,10.47 0 0 0 5.2,-0.84 33,33 0 0 0 9.14,-5.82 c 2.39,-2.08 4.42,-4.55 7.38,-6.07 2.24,-2.88 6.33,-4.8 8.82,-9.64 2.72,-1.11 5.16,-4.49 6.69,-4.94 v -5.17 z"
     id="path558" />
  <path
     d="m 723.16503,110.877 a 39.32,39.32 0 0 1 -6.9,8 9.69,9.69 0 0 1 -2.45,1.5 c 0,0 0.63,-2.83 0.13,-4.26 0,0 -5,4.43 -15.32,4.17 -10.32,-0.26 -13.72,2.37 -13.72,2.37 0,0 2.13,-2.92 8.55,-3.53 a 44.33,44.33 0 0 0 -12.59,-1.81 56.44,56.44 0 0 1 14.88,-0.52 c 0,0 6.3,1 11.33,-1.27 5.03,-2.27 6.11,-4.62 6.11,-4.62 0,0 0.9,3.41 3.5,4.14 a 8.87,8.87 0 0 0 2.67,-1.94 l 0.51,-0.55 a 15.47,15.47 0 0 1 2.94,-2.31 z"
     id="path560" />
  <path
     d="m 726.85503,126.247 v 0 a 26.44,26.44 0 0 0 -8,5.12 c -1.84,1.74 -4.2,2.94 -7.2,4.4 a 34.52,34.52 0 0 0 -10.94,8.55 c -2.57,2.81 -11.8,5.25 -16.87,3.11 0,0 9.65,-1.55 13.86,-4.27 4.21,-2.72 5.17,-4.87 13.69,-10.75 a 19,19 0 0 0 4.62,-4.33 18.42,18.42 0 0 0 1.09,-1.69 10,10 0 0 1 1.1,-1.4 l 4.21,0.5 c -0.04,0.19 4.51,0.6 4.44,0.76 z"
     id="path562" />
  <path
     d="m 761.84503,112.067 c -1.31,0.7 -2.64,1.38 -4,2.08 -4.71,2.43 -9.53,4.91 -14.16,7.81 a 22.59,22.59 0 0 1 -6.51,2.69 l -0.82,0.21 h -0.26 a 27.94,27.94 0 0 1 -7.16,1.06 6.78,6.78 0 0 0 -2.13,0.3 c -0.36,0.1 -0.79,0.24 -1.32,0.44 v 0 c -1,0.35 -2.26,0.89 -4.07,1.67 a 7.38,7.38 0 0 1 -1.49,0.14 18,18 0 0 1 -3.91,-0.41 18.42,18.42 0 0 0 1.09,-1.69 10,10 0 0 1 1.1,-1.4 v 0 a 15.11,15.11 0 0 1 4.17,-3.19 9.19,9.19 0 0 1 0.83,-0.42 l -5.91,-1.2 -0.4,-1.58 -0.65,0.28 -1.75,0.76 1.15,-2 c 0,-0.09 3.22,-4 3.25,-4.07 l 0.44,-0.53 0.51,-0.55 a 15.47,15.47 0 0 1 2.94,-2.31 26.46,26.46 0 0 1 9.67,-3.17 c 0.37,0 0.61,-0.09 0.78,-0.13 a 11.28,11.28 0 0 0 3.21,-1 l 0.09,-0.14 a 10.89,10.89 0 0 0 0.62,-1 17,17 0 0 1 6.21,-6.43 c 0.13,-0.08 0.3,-0.19 0.51,-0.3 a 8,8 0 0 1 0,-3.44 l -0.26,0.06 a 19.13,19.13 0 0 0 -4.93,2 l -9.79,5.31 6.27,-8.41 c 0.38,-0.5 0.75,-1 1.13,-1.36 l -1.44,0.2 -2,0.28 -7.58,1 5.37,-4.74 a 13.54,13.54 0 0 1 8.46,-3.37 c 1.2,-0.09 4.13,-0.14 4.81,-0.12 a 14.92,14.92 0 0 1 9.26,4.34 l 2.16,0.76 a 9.88,9.88 0 0 1 3.46,2.07 l 2.31,1.14 c 3.68,1.85 4.06,4.47 4,6.28 a 6.77,6.77 0 0 0 0.61,2.86 c 2.03,4.59 1.17,6.57 -3.87,9.22 z"
     id="path564" />
  <path
     class="cls-23"
     d="m 763.39503,103.627 a 8.92,8.92 0 0 1 -0.77,-3.66 c 0,-1.55 -0.26,-3.08 -2.75,-4.32 0.89,3.13 -0.46,6 0.1,9 -1.83,-1.63 -1.81,-3.61 -1.61,-5.28 a 7.17,7.17 0 0 0 -1.08,-4.93 6.23,6.23 0 0 0 -2.86,-1.9 c 0.36,3.49 0.52,6.95 -1.16,10.3 a 37.68,37.68 0 0 0 -0.18,-5.64 20.29,20.29 0 0 0 -1.37,-5.34 c -0.79,-1.84 -5.1,-4.17 -7.83,-4.25 a 1.89,1.89 0 0 0 -1.64,0.59 c -0.38,0.46 -0.27,0.95 0.2,1.41 a 5.55,5.55 0 0 0 0.78,0.66 c 0.11,0.09 0.23,0.17 0.35,0.25 h 0.07 l 0.42,0.26 a 12.16,12.16 0 0 0 2.48,1.09 c 0.8,0.25 1,0.51 0.68,1.07 -1.3,2.11 -1.29,4.35 0.09,7 a 1.93,1.93 0 0 0 -2.42,0.13 14.58,14.58 0 0 0 -5.4,5.56 c -0.31,0.58 -0.73,1.14 -1.09,1.72 v 0 a 13,13 0 0 1 -4.55,1.66 c -1.66,0.34 -9.21,0.95 -12,5.21 0.39,-0.61 1.69,0.55 2.65,0.86 l 2.66,1.51 c -2,0.58 -4,0.84 -5.6,2.11 l 4.88,1 3.78,1.46 a 41.7,41.7 0 0 0 -6.49,2.49 13,13 0 0 0 -3.56,2.74 c 10.4,-4.54 5.89,-1.36 15.34,-3.68 h 0.14 l 0.79,-0.21 a 20.37,20.37 0 0 0 5.74,-2.35 c 6.07,-3.81 12.41,-6.88 18.32,-10 4.01,-2.08 4.39,-2.98 2.89,-6.52 z"
     id="path566" />
  <path
     class="cls-15"
     d="m 763.39503,103.627 a 8.92,8.92 0 0 1 -0.77,-3.66 c 0,-1.55 -0.26,-3.08 -2.75,-4.32 0.89,3.13 -0.46,6 0.1,9 -1.83,-1.63 -1.81,-3.61 -1.61,-5.28 a 7.17,7.17 0 0 0 -1.08,-4.93 6.23,6.23 0 0 0 -2.86,-1.9 c 0.36,3.49 0.52,6.95 -1.16,10.3 a 37.68,37.68 0 0 0 -0.18,-5.64 20.29,20.29 0 0 0 -1.37,-5.34 c -0.79,-1.84 -5.1,-4.17 -7.83,-4.25 a 1.89,1.89 0 0 0 -1.64,0.59 c -0.38,0.46 -0.27,0.95 0.2,1.41 a 5.55,5.55 0 0 0 0.78,0.66 c 0.11,0.09 0.23,0.17 0.35,0.25 h 0.07 l 0.42,0.26 a 1.46,1.46 0 0 1 0,-1 1.18,1.18 0 0 1 0.85,-0.76 2.56,2.56 0 0 1 1.25,0.13 7.94,7.94 0 0 1 4.71,3.79 12.19,12.19 0 0 1 1.17,5.17 21.24,21.24 0 0 0 0.81,5.51 9.85,9.85 0 0 0 1.8,-4.3 26.72,26.72 0 0 0 0.37,-4.45 4,4 0 0 1 1.76,2.27 9.41,9.41 0 0 1 0.05,2.37 8.27,8.27 0 0 0 3.31,6.14 19,19 0 0 1 0.55,-7.17 3.32,3.32 0 0 1 1.33,2.31 14.08,14.08 0 0 0 0.39,2.54 c 0.18,0.54 0.5,1.13 0.3,1.64 0.18,-0.09 0.4,-0.17 0.57,-0.26 a 3.05,3.05 0 0 1 -1.07,2.89 11.81,11.81 0 0 1 -3.1,1.9 115.49,115.49 0 0 1 -22.64,7.85 l 3,0.55 a 34.85,34.85 0 0 1 -15.74,5.75 13,13 0 0 0 -3.56,2.74 c 10.4,-4.54 5.89,-1.36 15.34,-3.68 h 0.14 l 0.79,-0.21 a 20.37,20.37 0 0 0 5.74,-2.35 c 6.07,-3.81 12.41,-6.88 18.32,-10 4.01,-2.08 4.39,-2.98 2.89,-6.52 z"
     id="path568" />
  <path
     class="cls-3"
     d="m 739.51503,89.117 c 0.09,0.35 0,0.58 -0.53,0.59 -2.05,0.07 -4,0.44 -6.45,0.75 a 12,12 0 0 1 7,-2.73 5.76,5.76 0 0 0 -0.02,1.39 z"
     id="path570" />
  <path
     class="cls-3"
     d="m 742.99503,92.477 a 20.93,20.93 0 0 0 -5.66,2.28 c 2.18,-2.92 4.12,-3.62 5.66,-2.28 z"
     id="path572" />
  <path
     class="cls-2"
     d="m 699.52503,296.787 a 24.81,24.81 0 0 1 -6.71,17.53 21.89,21.89 0 0 1 -14.16,7.07 q 3.18,9 31.44,78.95 h -40.15 l -29,-69.33 v 69.31 h -48.43 l 10.78,-37.6 v -103.4 l -10.78,-37.22 h 81.23 a 22,22 0 0 1 18.72,9.61 q 7.07,9.63 7.06,26.36 z m -37.17,-37.47 h -21.37 v 38.35 h 21.37 z"
     id="path574" />
  <path
     class="cls-2"
     d="m 739.24503,362.987 20.22,-141.4 h 60.92 l 20.13,141.4 9.45,37.6 h -45.47 l -4.24,-43.59 h -22.6 l -4.06,43.59 h -44.59 z m 58.72,-38.67 -8.66,-72.2 -8.92,72.2 z"
     id="path576" />
  <path
     class="cls-2"
     d="m 952.65503,400.467 h -58.89 l 10.42,-37.6 v -103.81 h -7.15 l -27.38,25.73 v -63.08 h 107.09 v 63.08 l -27.37,-25.73 h -7.15 v 103.81 z"
     id="path578" />
  <path
     class="cls-2"
     d="m 997.475,257.687 q 0,-16.74 7,-26.49 a 21.94,21.94 0 0 1 18.71,-9.61 h 64.47 v 53.09 l -32,-15.74 h -20.84 v 32.47 h 31.69 a 21.66,21.66 0 0 1 18.63,9.75 q 7,9.74 7,26.36 v 36.85 q 0,16.49 -7,26.23 a 21.67,21.67 0 0 1 -18.63,9.74 h -67 v -55.34 l 35.32,17.74 h 20.84 v -36.1 h -32.41 a 21.93,21.93 0 0 1 -18.71,-9.62 q -7,-9.62 -7,-26.36 z"
     id="path580" />
  <path
     class="cls-24"
     d="m 699.52503,296.787 a 24.81,24.81 0 0 1 -6.71,17.53 21.89,21.89 0 0 1 -14.16,7.07 q 3.18,9 31.44,78.95 h -40.15 l -29,-69.33 v 69.31 h -48.43 l 10.78,-37.6 v -103.4 l -10.78,-37.22 h 81.23 a 22,22 0 0 1 18.72,9.61 q 7.07,9.63 7.06,26.36 z m -37.17,-37.47 h -21.37 v 38.35 h 21.37 z"
     id="path582"
     style="fill:url(#linearGradient981)" />
  <path
     class="cls-25"
     d="m 739.24503,362.987 20.22,-141.4 h 60.92 l 20.13,141.4 9.45,37.6 h -45.47 l -4.24,-43.59 h -22.6 l -4.06,43.59 h -44.59 z m 58.72,-38.67 -8.66,-72.2 -8.92,72.2 z"
     id="path584"
     style="fill:url(#linear-gradient-8)" />
  <path
     class="cls-26"
     d="m 952.65503,400.467 h -58.89 l 10.42,-37.6 v -103.81 h -7.15 l -27.38,25.73 v -63.08 h 107.09 v 63.08 l -27.37,-25.73 h -7.15 v 103.81 z"
     id="path586"
     style="fill:url(#linear-gradient-9)" />
  <path
     class="cls-27"
     d="m 997.475,257.687 q 0,-16.74 7,-26.49 a 21.94,21.94 0 0 1 18.71,-9.61 h 64.47 v 53.09 l -32,-15.74 h -20.84 v 32.47 h 31.69 a 21.66,21.66 0 0 1 18.63,9.75 q 7,9.74 7,26.36 v 36.85 q 0,16.49 -7,26.23 a 21.67,21.67 0 0 1 -18.63,9.74 h -67 v -55.34 l 35.32,17.74 h 20.84 v -36.1 h -32.41 a 21.93,21.93 0 0 1 -18.71,-9.62 q -7,-9.62 -7,-26.36 z"
     id="path588"
     style="fill:url(#linear-gradient-10)" />
  <rect
     class="cls-18"
     x="644.88501"
     y="266.017"
     width="11.18"
     height="25.32"
     id="rect590" />
</svg>
